<?xml version="1.0" encoding="utf-8"?>
<!-- Generator: Adobe Illustrator 26.2.1, SVG Export Plug-In . SVG Version: 6.00 Build 0)  -->
<svg version="1.1" id="book-top" xmlns="http://www.w3.org/2000/svg" xmlns:xlink="http://www.w3.org/1999/xlink" x="0px" y="0px"
	 viewBox="0 0 200 300" style="enable-background:new 0 0 200 300;" xml:space="preserve">
<style type="text/css">
	.st0{clip-path:url(#SVGID_00000140014914122231071370000006265420153064691885_);}
	.st1{fill:#F7C7DE;}
	.st2{clip-path:url(#SVGID_00000162315501077495093010000005557878380583223428_);fill:#F7C7DE;}
	.st3{opacity:0.4;clip-path:url(#SVGID_00000162315501077495093010000005557878380583223428_);fill:#E75680;}
	.st4{clip-path:url(#SVGID_00000162315501077495093010000005557878380583223428_);}
	.st5{fill:#E75680;}
	.st6{fill:#F7C5DD;}
	.st7{fill:#28348A;}
	.st8{fill:#38539F;}
	.st9{fill:#FFFFFF;}
	.st10{fill:#69283E;}
	.st11{fill:#4F69AF;}
	.st12{fill:#EA5680;}
	.st13{fill:#74253B;}
</style>
<g>
	<defs>
		<path id="SVGID_1_" d="M10,0h180c5.5,0,10,4.5,10,10v280c0,5.5-4.5,10-10,10H10c-5.5,0-10-4.5-10-10V10C0,4.5,4.5,0,10,0z"/>
	</defs>
	<use xlink:href="#SVGID_1_"  style="overflow:visible;fill:#F7C7DE;"/>
	<clipPath id="SVGID_00000042005529669793635280000004696854844961147288_">
		<use xlink:href="#SVGID_1_"  style="overflow:visible;"/>
	</clipPath>
	<g id="Mask_Group_2" style="clip-path:url(#SVGID_00000042005529669793635280000004696854844961147288_);">
		<path id="book-bg-2" class="st1" d="M10,0h180c5.5,0,10,4.5,10,10v280c0,5.5-4.5,10-10,10H10c-5.5,0-10-4.5-10-10V10
			C0,4.5,4.5,0,10,0z"/>
	</g>
</g>
<g>
	<defs>
		<rect id="SVGID_00000173853801473155412050000003664742263110375086_" x="0.2" y="9.6" width="199.6" height="283.2"/>
	</defs>
	<clipPath id="SVGID_00000076584877236233132550000011311637058366902195_">
		<use xlink:href="#SVGID_00000173853801473155412050000003664742263110375086_"  style="overflow:visible;"/>
	</clipPath>
	
		<rect x="0.2" y="9.6" style="clip-path:url(#SVGID_00000076584877236233132550000011311637058366902195_);fill:#F7C7DE;" width="199.6" height="283.2"/>
	
		<ellipse style="opacity:0.4;clip-path:url(#SVGID_00000076584877236233132550000011311637058366902195_);fill:#E75680;" cx="99.9" cy="266.5" rx="79.7" ry="4.8"/>
	<g style="clip-path:url(#SVGID_00000076584877236233132550000011311637058366902195_);">
		<path class="st5" d="M67.1,153.3c-6.1,4.8,2.5,24.9,11.5,32.4c9,7.5,17.6-7.3,17.6-7.3L67.1,153.3z"/>
		<g>
			<path class="st6" d="M127.3,187.7c-0.7,3.3-1.3,5.1-3.2,7.2c-1.9,2.1-8.9-1.9-9-1.9c0-0.1-0.7-7-0.3-7.3c0.4-0.3,6.2-2.6,6.2-2.6
				L127.3,187.7z"/>
			<path class="st7" d="M122.4,195.8c-0.4,0-0.9-0.1-1.5-0.2c-2.5-0.5-5.8-2.3-5.9-2.5c0-0.1-0.8-7.2-0.2-7.6
				c0.4-0.3,5.3-2.2,6.2-2.6l0.1,0l6.5,4.8l0,0.1c-0.7,3.4-1.3,5.2-3.3,7.3C123.9,195.5,123.2,195.8,122.4,195.8z M115.4,192.9
				c0.7,0.5,6.9,3.7,8.6,1.9c1.9-2,2.4-3.7,3.1-7l-6.1-4.5c-2.2,0.9-5.6,2.3-6,2.5C114.8,186.5,115.3,192,115.4,192.9z M115,185.8"
				/>
		</g>
		<g>
			<g>
				<g>
					<polygon class="st6" points="60.7,214.6 54.5,223.6 61.7,227.7 69.9,218.6 63.6,215 					"/>
					<path class="st7" d="M61.7,227.9l-7.5-4.3l6.4-9.3l3.2,0.4l6.5,3.7L61.7,227.9z M54.8,223.5l6.8,3.9l7.9-8.8l-6-3.4l-2.8-0.4
						L54.8,223.5z"/>
				</g>
				<g>
					<path class="st8" d="M81.9,179.5c-8.1,2.5-22.4,35.8-22.4,35.8c0.9,3.1,3.9,5.2,7.8,6.9c0,0,16.1-17.8,20.9-23.7
						c4.8-5.9,0-19.7,0-19.7L81.9,179.5z"/>
					<path class="st7" d="M80,187.8c-7.4,15.6-8.9,23.2-9.8,31.3c4.8-5.4,14.6-16.2,18.1-20.6c4.8-5.9-1.8-21.2-1.8-21.2
						S83.1,181.2,80,187.8z"/>
				</g>
				<g>
					<path class="st5" d="M62.5,226.4c0.7,3.2-0.2,6.4-2.4,7.6l-21.3-16.8c0,0,3.2-3.8,7.4-1.5c6,3.3,9.4,2.6,9.4,2.6l1.4,2.5
						l-1.6,0.8C57.5,224.4,59.8,226.3,62.5,226.4z"/>
					<path class="st9" d="M36.4,215.5l24,19.4l1.8-3L44.7,219l1.2-3.5C41.5,213.1,37.6,212.2,36.4,215.5z"/>
					<g>
						<g>
							<path class="st7" d="M47.6,219.7l-0.3-0.3c0.6-0.7,1-1.7,1.1-3l0.4,0C48.8,217.8,48.4,218.9,47.6,219.7z"/>
						</g>
						<g>
							<path class="st7" d="M50.4,221.1l-0.4-0.2c0.8-1.4,1.1-2.6,0.8-3.8l0.4-0.1C51.6,218.2,51.3,219.6,50.4,221.1z"/>
						</g>
						<g>
							<path class="st7" d="M53.6,221.8l-0.4-0.2c0.6-1.4,0.7-2.7,0.3-4.1l0.4-0.1C54.4,218.9,54.3,220.4,53.6,221.8z"/>
						</g>
					</g>
				</g>
			</g>
			<g>
				<path class="st10" d="M101.5,119.9c3.1,11.5,1.3,14.7,11.6,14.3c10.3-0.4,3-13.2,3-13.2L101.5,119.9z"/>
				<g>
					<path class="st6" d="M107,120.4l-2.2,10.7c0,0,4.9-0.3,5.5,0.3c0.6,0.6-9,13.3-14.1,9.5c-5.1-3.9-2.2-14-2.2-14l3.7,2l2.8-6.4
						L107,120.4z"/>
					<path class="st7" d="M98.5,141.8c-0.8,0-1.6-0.2-2.3-0.8c-5.2-3.9-2.4-13.8-2.3-14.2l0.1-0.3l3.7,2l2.7-6.3l6.9-2.1l-2.2,10.8
						c1.2-0.1,4.8-0.2,5.4,0.3c0.6,0.6-2.7,4.4-2.8,4.5C106.3,137.3,102.1,141.8,98.5,141.8z M94.2,127.2
						c-0.4,1.6-2.3,10.1,2.2,13.5c1.3,1,3,0.9,5-0.2c4.3-2.2,8.6-8.1,8.7-9c-0.5-0.3-3-0.3-5.3-0.2l-0.3,0l2.1-10.6l-6,1.9l-2.8,6.6
						L94.2,127.2z"/>
				</g>
				<g>
					<path class="st6" d="M103.1,111c-5.5,0.2-6.9,6.4-6.3,11.4c0.6,4.7,5.6,4.7,9.2-0.7c1.5-2.3,1.4-6.3,0.2-8.1
						C105,111.7,103.1,111,103.1,111z"/>
					<g>
						<path class="st7" d="M100.1,126c-0.5,0-0.9-0.1-1.4-0.3c-1.2-0.5-2-1.7-2.2-3.4c-0.5-3.5,0.3-7,2-9.1c1.2-1.4,2.8-2.2,4.7-2.2
							l0,0l0,0c0.1,0,1.7,0.6,3,2.4c1.2,1.8,1.4,5.9-0.2,8.3l-0.4-0.2c1.5-2.2,1.3-6.2,0.2-7.9c-1.1-1.6-2.5-2.1-2.7-2.2
							c-1.8,0.1-3.2,0.8-4.3,2.1c-1.7,2-2.4,5.3-1.9,8.8c0.2,1.5,0.9,2.6,1.9,3c1.1,0.5,2.6,0.2,4.1-0.8l0.3,0.4
							C102.2,125.6,101.1,126,100.1,126z"/>
					</g>
					<g>
						<path class="st7" d="M104.3,119.1c-0.9,0-1.9-0.6-2.5-1.6c-0.1-0.1,0-0.2,0.1-0.3c0.1-0.1,0.2,0,0.3,0.1c0.7,1.2,2,1.7,3,1.1
							c0.1-0.1,0.2,0,0.3,0.1c0.1,0.1,0,0.2-0.1,0.3C105.1,119,104.7,119.1,104.3,119.1z"/>
					</g>
					<g>
						<path class="st7" d="M99.2,117.4c-1.2,0-2.3-0.7-2.6-1.8c0-0.1,0-0.2,0.2-0.3c0.1,0,0.2,0,0.3,0.2c0.3,1.1,1.6,1.7,2.9,1.3
							c0.1,0,0.2,0,0.3,0.2c0,0.1,0,0.2-0.2,0.3C99.7,117.4,99.5,117.4,99.2,117.4z"/>
					</g>
				</g>
				<g>
					<path class="st10" d="M103,111.5c0.2,2.6,1.9,4.2,4.3,5.4c0,0-1.8,7.7,4.3,15.9c6.1,8.2,22.7,12.1,31.4,2.1
						c4.4-5.1,2.7-15-11.4-16.1c-7-0.5-14.4-3.2-17.3-6.6c-8.3-10.1-17.1-4.8-16.4,2.7C99.7,114.3,101.4,113.3,103,111.5z"/>
					<g>
						<path class="st10" d="M129.6,142c-0.2,0-0.4,0-0.5,0c-10.1-0.2-16.4-4.7-20.4-14.4c0-0.1,0-0.2,0.1-0.3c0.1,0,0.2,0,0.3,0.1
							c4,9.5,10.2,13.9,20,14.1c0.2,0,0.4,0,0.5,0c9.9,0,13-7,13.7-9.2c0-0.1,0.2-0.2,0.3-0.1c0.1,0,0.2,0.2,0.1,0.3
							C143,134.7,139.8,142,129.6,142z"/>
					</g>
					<g>
						<path class="st10" d="M107.1,117.1c-1.4,0-2.9-0.8-3.8-2c-0.6-0.8-1.1-2-0.5-3.7c0-0.1,0.2-0.2,0.3-0.1c0.1,0,0.2,0.2,0.1,0.3
							c-0.5,1.5,0,2.6,0.5,3.3c0.8,1.1,2.3,1.9,3.6,1.8c0.1,0,0.2,0.1,0.2,0.2c0,0.1-0.1,0.2-0.2,0.2
							C107.2,117.1,107.1,117.1,107.1,117.1z"/>
					</g>
					<g>
						<path class="st10" d="M129.4,116.4c-2.6,0-10.5-0.4-14.9-5.5c-3.5-3.9-8.3-5.8-11.7-4.6c-2.8,1-4.5,4-4.7,8.6
							c0,0.1-0.1,0.2-0.2,0.2c-0.1,0-0.2-0.1-0.2-0.2c0.3-6.1,2.9-8.2,5-9c3.6-1.3,8.6,0.7,12.2,4.7c5.2,5.9,15.4,5.3,15.5,5.3
							c0.1,0,0.2,0.1,0.2,0.2c0,0.1-0.1,0.2-0.2,0.2C130.3,116.3,129.9,116.4,129.4,116.4z"/>
					</g>
				</g>
				<g>
					<path class="st6" d="M105.9,120.3c0,0,2.9,1.7,5.2,0c2.3-1.7,0.2-3.5-1.1-3.7c-1.6-0.3-3,0.7-3,0.7L105.9,120.3z"/>
					<g>
						<path class="st7" d="M108.7,121.3c-1.5,0-2.8-0.7-2.9-0.8l0.2-0.4c0,0,2.8,1.6,5,0c0.7-0.5,1-1.1,0.9-1.7
							c-0.2-0.8-1.2-1.5-1.9-1.6c-1.5-0.3-2.8,0.7-2.9,0.7l-0.3-0.4c0.1,0,1.5-1.1,3.2-0.8c0.9,0.2,2,1,2.3,2c0.1,0.5,0,1.3-1.1,2.2
							C110.4,121.1,109.5,121.3,108.7,121.3z"/>
					</g>
					<g>
						<line class="st6" x1="111.5" y1="117.4" x2="107.8" y2="118.1"/>
						
							<rect x="107.7" y="117.5" transform="matrix(0.9825 -0.1863 0.1863 0.9825 -20.0073 22.481)" class="st7" width="3.8" height="0.4"/>
					</g>
				</g>
				<g>
					<g>
						<path class="st6" d="M56.8,106.5c-2.6-1.8-13.1-11.1-15.6-13.6c-2.6-2.4-3.9,0.8-1.2,6.4c2.7,5.6,5,7.9,5,7.9
							s-5.7-5.5-5.8-4.5c-0.1,1,10.1,10.9,11.6,11.8C52.3,115.4,56.8,106.5,56.8,106.5z"/>
						<path class="st7" d="M51.1,114.8c-0.1,0-0.2,0-0.3-0.1c-1.3-0.8-11.8-10.8-11.7-12c0-0.1,0.1-0.3,0.2-0.3
							c0.5-0.2,2.2,1.2,3.8,2.7c-0.9-1.3-2-3.2-3.2-5.7c-1.9-4-1.8-6.7-0.8-7.4c0.3-0.3,1.1-0.5,2.4,0.7
							c2.5,2.4,12.9,11.7,15.6,13.6l0.2,0.1l-0.1,0.2c-0.4,0.8-4,7.6-5.7,8.2C51.2,114.8,51.1,114.8,51.1,114.8z M39.5,102.9
							c0.7,1.5,10,10.7,11.4,11.4c0,0,0.1,0,0.2,0c1.3-0.4,4.2-5.6,5.4-7.8c-2.9-2.1-13-11.1-15.5-13.5c-0.7-0.7-1.4-0.9-1.8-0.6
							c-0.8,0.6-0.8,3.2,0.9,6.8c2.6,5.5,5,7.9,5,7.9l-0.3,0.3C42.7,105.4,40.2,103.2,39.5,102.9z"/>
					</g>
					<g>
						<path class="st7" d="M48.9,107.9c-2.2-1.9-5.4-8.4-5.1-9.4c0-0.1,0.1-0.2,0.3-0.2c0.4-0.1,1,0.4,2.8,1.7
							c1.7,1.3,4.1,3.1,6,3.9l-0.2,0.4c-1.9-0.8-4.4-2.6-6.1-3.9c-1-0.7-2-1.5-2.4-1.6c0,1,2.8,7,5,8.9L48.9,107.9z"/>
					</g>
					<g>
						<path class="st7" d="M45.1,104.1c-2.8-2.9-6.5-10.1-6.7-10.4l0.4-0.2c0,0.1,3.9,7.5,6.6,10.3L45.1,104.1z"/>
					</g>
					<g>
						<path class="st7" d="M43.9,98.6c-0.2-0.2-3.9-4.2-5.1-6.1l0.4-0.2c1.2,1.8,5,6,5,6L43.9,98.6z"/>
					</g>
				</g>
				<g>
					<g>
						<path class="st9" d="M106.2,130.8c0,0,10.6-0.5,12.2,5c1.6,5.5-18.4,16.8-18.4,16.8L84.3,153l-3-16.6
							c-12.7-5.8-23.7-12.8-31.4-22.2c1.3-3.1,3.7-5.8,6.5-8.4c17.3,12.9,28,14.3,40.5,22.2C92.1,139.1,100.8,142.8,106.2,130.8z"/>
						<g>
							<path class="st7" d="M98.5,139.8c-0.6,0-1.2-0.1-1.7-0.4c-1.2-0.6-2-1.6-2.4-2.9c-0.9-3.1,0.5-7.4,1.4-9l0.4,0.2
								c-0.8,1.5-2.3,5.7-1.4,8.7c0.4,1.2,1.1,2.1,2.1,2.7c0.9,0.5,1.9,0.5,2.9,0.1c3.4-1.2,6.6-6.5,7.4-8.4l0.4,0.2
								c-0.8,1.9-4.1,7.3-7.6,8.6C99.5,139.7,99,139.8,98.5,139.8z"/>
						</g>
					</g>
					<path class="st7" d="M105.9,142.2c-5.9,5.4-19.5,6.4-19.5,6.4l-1.2,5.1l12.6,0.6l11.8-7.9L105.9,142.2z"/>
				</g>
			</g>
		</g>
		<g>
			<g>
				<g>
					<path class="st6" d="M80.8,143.1l1,8.7l-5.3,0.3c0,0,1.6,13,6.8,11.4s6.8-8.7,6.8-8.7l-0.3-4.8l-2.1,0.5l-1-6L80.8,143.1z"/>
					<path class="st7" d="M82.4,163.8c-0.6,0-1.1-0.2-1.6-0.5c-3.4-2.2-4.5-10.8-4.5-11.2l0-0.2l5.3-0.3l-1.1-8.7l6.3,1.4l1,5.9
						l2.1-0.5l0.4,5.1l0,0c-0.1,0.3-1.7,7.3-6.9,8.9C83,163.8,82.7,163.8,82.4,163.8z M76.8,152.3c0.2,1.4,1.4,8.8,4.3,10.7
						c0.7,0.4,1.4,0.5,2.2,0.3c4.8-1.5,6.5-8,6.6-8.5l-0.3-4.5l-2.1,0.5l-1-6.1l-5.4-1.2l1,8.6L76.8,152.3z"/>
				</g>
				<g>
					
						<rect x="81.8" y="151.8" transform="matrix(0.9919 -0.1274 0.1274 0.9919 -18.8739 11.7007)" class="st7" width="0.4" height="3.2"/>
				</g>
			</g>
			<g>
				<g>
					<path class="st6" d="M81.3,143.2c1.5,2.8,6.1,5.4,8.8,3.1c2.6-2.3,1.3-10-1.6-14c-2.9-3.9-7.9-0.5-7.9-0.5l0,5L81.3,143.2z"/>
					<g>
						<path class="st7" d="M87.6,147.3c-0.8,0-1.6-0.2-2.5-0.6l0.2-0.4c1.1,0.5,3.1,1.1,4.7-0.3c2.5-2.2,1.2-9.8-1.7-13.7
							c-2.5-3.5-6.8-1-7.5-0.5l0,4.9l0.8,6.3l-0.4,0.1l-0.8-6.3l0-5.2l0.1-0.1c0.1,0,5.3-3.5,8.2,0.5c3,4.1,4.3,11.9,1.6,14.3
							C89.5,147,88.6,147.3,87.6,147.3z"/>
					</g>
					<g>
						<path class="st7" d="M87.1,138.2c-0.1,0-0.2-0.1-0.2-0.2l-0.5-1.6c0-0.1,0-0.2,0.1-0.3c0.1,0,0.2,0,0.3,0.1l0.5,1.6
							C87.4,138,87.3,138.1,87.1,138.2C87.2,138.2,87.2,138.2,87.1,138.2z"/>
					</g>
				</g>
				<g>
					<g>
						<path class="st7" d="M80.8,141.4C80.7,141.4,80.7,141.4,80.8,141.4c-1.3-0.3-4.4-1.5-5.4-6c-1.2-5.8,1.7-10,4.9-11.5
							c0.1,0,0.2,0,0.3,0.1c0,0.1,0,0.2-0.1,0.3c-3.1,1.4-5.8,5.4-4.6,11c0.9,4.2,3.8,5.3,5,5.6c0.1,0,0.2,0.1,0.2,0.3
							C80.9,141.4,80.9,141.4,80.8,141.4z"/>
					</g>
					<g>
						<path class="st7" d="M85.7,134.6l0.7-6c0-0.5,0.1-2.8,1.1-3.2c0.4-0.1,0.9,0.1,1.4,0.8c0.9,1.1,1.2,2.5,0.9,4
							c-0.4,1.8-1.8,3.4-3.8,4.3L85.7,134.6z M87.8,125.8C87.7,125.8,87.7,125.8,87.8,125.8c-0.6,0.2-0.9,1.7-0.9,2.8l-0.6,5.2
							c1.6-0.9,2.8-2.3,3.2-3.8c0.3-1.3,0-2.6-0.8-3.6C88.3,126,88,125.8,87.8,125.8z"/>
					</g>
					<path class="st7" d="M81.5,134.9c3,1.1,8.3-1.5,7.8-5.4c-0.6-3.9-5.8-9.5-10.7-4.2c-4.8,5.2-2.4,13.8-0.2,14.9
						c2.2,1.1,3.7-0.8,3.7-0.8L81.5,134.9z"/>
				</g>
				<g>
					<path class="st6" d="M81.7,140.3c-2.2-1.6-4.4-1-4.5,0.4c0,1.4,2.2,3.9,4.6,2.7L81.7,140.3z"/>
					<g>
						<path class="st7" d="M80.6,144c-0.6,0-1.2-0.2-1.7-0.5c-1-0.6-1.8-1.8-1.8-2.8c0-0.6,0.3-1.1,0.9-1.3c0.8-0.4,2.3-0.4,3.9,0.8
							l-0.3,0.4c-1.4-1-2.7-1.1-3.5-0.7c-0.4,0.2-0.6,0.5-0.6,1c0,0.7,0.6,1.7,1.6,2.4c0.6,0.4,1.6,0.7,2.7,0.2l0.2,0.4
							C81.5,143.8,81,144,80.6,144z"/>
					</g>
					<g>
						<line class="st6" x1="80.5" y1="141.3" x2="77.2" y2="140.7"/>
						
							<rect x="78.7" y="139.3" transform="matrix(0.192 -0.9814 0.9814 0.192 -74.6347 191.3576)" class="st7" width="0.4" height="3.4"/>
					</g>
				</g>
			</g>
			<g>
				<g>
					<g>
						<g>
							<path class="st7" d="M67.9,259.1c-2.5-0.9-4.4-4-4.2-5.7c0.1-0.5,0.3-0.9,0.8-0.9c0.7-0.1,2.2,2.5,3.2,4.6
								c-0.2-1.8-0.1-3.7,0.7-4.9c0.5-0.7,1.1-1.1,2-1.2c0.8-0.1,1.4,0.3,1.7,1c0.6,1.6-0.3,4.5-3.3,6.8l-0.3-0.3
								c3-2.3,3.6-5.1,3.1-6.3c-0.2-0.4-0.5-0.8-1.3-0.8c-0.7,0.1-1.2,0.4-1.6,1c-1,1.5-0.9,4.2-0.3,6.3l-0.4,0.2c0,0,0-0.1,0-0.1
								L67.9,259.1z M64.5,252.9c-0.1,0-0.3,0-0.4,0.5c-0.1,1.3,1.4,4.3,3.8,5.2C66.7,255.9,65,253,64.5,252.9z"/>
						</g>
						<path class="st10" d="M90.1,266.5H59.5c-0.2-4.4,2.9-8,9-8.2L90.1,266.5z"/>
						<path class="st9" d="M59.8,264c-0.2,0.8-0.3,1.7-0.3,2.6h30.6l-5.2-2l-1.3-0.1L59.8,264z"/>
					</g>
					<g>
						<g>
							<path class="st7" d="M116.3,260c-0.1,0-0.1,0-0.2,0c-0.6-0.1-1-0.4-1-0.8c-0.1-0.6,1.7-1.6,3.5-2.5c-1.7,0.4-3.4,0.7-4.3,0
								c-0.4-0.3-0.7-0.8-0.8-1.4c-0.1-0.8,0.3-1.4,1-1.7c1.5-0.7,4.4-0.1,6.4,1.8l-0.3,0.3c-1.8-1.8-4.5-2.4-5.8-1.7
								c-0.4,0.2-0.9,0.6-0.8,1.3c0.1,0.5,0.2,0.9,0.6,1.1c1,0.7,3.1,0.2,5-0.3c0.4-0.1,0.8-0.2,1.2-0.3l0.1,0.4c0,0-0.1,0-0.1,0.1
								l0.4,0.1C120.4,258.6,117.8,260,116.3,260z M120.7,256.2c-2.5,1.1-5.1,2.5-5.1,2.9c0,0.3,0.3,0.4,0.6,0.5
								C117.4,259.7,120,258.5,120.7,256.2z"/>
						</g>
						<path class="st10" d="M112.9,266.5h13.2l8.3-16.7c-0.1-6.5-5.9-8.9-11.6-11.4l-2.8,15.3l-0.7,6.2
							C114.7,260,111.9,263,112.9,266.5z"/>
						<path class="st9" d="M134.5,249.8c0-1.4-0.3-2.6-0.8-3.7c-2,4.3-7.5,15.8-8.9,17.3c-1.3,1.4-8.4,1.2-12,1
							c-0.1,0.7-0.1,1.4,0.1,2.1h13.2L134.5,249.8z"/>
					</g>
				</g>
				<g>
					<g>
						<path class="st11" d="M90.6,179.4c-12.4,14.7-16.7,25.3-18.2,37.5c-1.5,12.2-3.8,41.4-3.8,41.4c1.4,3.2,11.9,7.9,21.5,8.2
							c0,0,0.9-39,2.6-45.5c1.7-6.5,9.2-14.1,9.2-14.1v-29.1L90.6,179.4z"/>
						<path class="st7" d="M89,208.6c1.1,4.3,2.5,8.4,3.9,11.7c2-6.4,9-13.4,9-13.4v-27.5l-1.3,3.7C97.9,190.1,86.4,198,89,208.6z"
							/>
					</g>
					<path class="st11" d="M96.9,182.8c-4.7,13.4-5,18.3-1.1,31.7c3.9,13.3,17.9,40.7,17.9,40.7c7.7-1.8,17.4-6.1,22.4-13.5
						c0,0-19.9-25.4-21.5-40.8c-1.6-15.4-0.8-25.3-0.8-25.3L96.9,182.8z"/>
				</g>
			</g>
			<path class="st5" d="M77.6,151.7c0,0-9.8-1.8-11.7,3.3c-1.9,5.1,2.6,17.4,20.8,27.4c18.2,10,23.2-6.3,23.2-6.3l1.9-26.1
				c0,0-11.7-1.1-16.7-1.3c-4.9-0.3-6.5,1.6-6.5,1.6C85.6,163.6,77.3,166.1,77.6,151.7z"/>
		</g>
		<g>
			<path class="st5" d="M109.8,149.8c10.3,0.2,22.6,1.3,24.4,11.4s-6.5,26.6-6.5,26.6c-3,0.4-5.8-0.1-8.4-1.1c0,0,4.8-19,0.4-19.9
				c-4.4-0.9-11.5-1.3-11.5-1.3L109.8,149.8z"/>
			<path class="st7" d="M109.6,160.4l-1,1.5l-0.4,3.5c0,0-3,2.3-1.6,2.4c7.1-4.2,11.6-11.8,13.4-17.2c-2.2-0.3-4.4-0.5-6.7-0.6
				L109.6,160.4z"/>
		</g>
		<g>
			<g>
				<g>
					<path class="st6" d="M81.9,166.1c-3.1,0.6-9.6,0.2-9.9,0.6c-0.3,0.4,6,2.1,6,2.1s-8.5,0.4-9.9,0c-1.4-0.4-0.9,4.7,4.5,5.5
						c5.4,0.8,5.9,0.8,5.9,0.8s-4.8,0.4-5.6,0.4c-0.8,0,1.4,1.1,5.7,0.7c4.3-0.4,6.7-1.5,6.7-1.5l1.2-2.9L81.9,166.1z"/>
					<path class="st7" d="M76.8,176.6c-2.4,0-4.1-0.5-4.3-0.8l-0.1-0.1l0.1-0.2c0.1-0.2,0.3-0.2,0.4-0.2c0.4,0,2.1-0.1,3.5-0.2
						c-0.9-0.1-2.1-0.3-3.8-0.6c-3.7-0.6-4.9-3-5.1-3.8c-0.3-0.9-0.3-1.6,0.1-2c0.2-0.2,0.4-0.2,0.7-0.2c1,0.3,6,0.1,8.4,0
						c-3.1-0.9-4.7-1.5-4.8-1.9l0-0.1l0.1-0.1c0.2-0.2,0.8-0.3,3.5-0.3c2.2,0,4.8-0.1,6.5-0.4l0.1,0l4.7,6l-1.3,3.1l-0.1,0
						c-0.1,0-2.5,1.2-6.8,1.6C77.9,176.6,77.3,176.6,76.8,176.6z M73.5,175.8c0.9,0.2,2.6,0.5,5.1,0.3c3.8-0.3,6.1-1.3,6.5-1.5
						l1.1-2.7l-4.4-5.6c-1.7,0.3-4.3,0.3-6.4,0.3c-1.1,0-2.3,0-2.9,0.1c0.8,0.4,3.3,1.2,5.6,1.8l1.3,0.4l-1.4,0.1
						c-0.3,0-8.5,0.4-9.9,0c-0.1,0-0.2,0-0.2,0.1c-0.2,0.2-0.2,0.8,0,1.6c0.2,0.7,1.3,2.9,4.8,3.5c5.2,0.8,5.8,0.8,5.8,0.8l0,0.4
						C78.3,175.4,75,175.7,73.5,175.8z M72.8,175.8L72.8,175.8L72.8,175.8z"/>
				</g>
				<g>
					<path class="st7" d="M74.7,171.1c-3,0-6.3-0.6-7.3-1l0.2-0.4c0.9,0.4,4.5,1.1,7.8,0.9l0,0.4C75.2,171.1,74.9,171.1,74.7,171.1z
						"/>
				</g>
				<g>
					<path class="st7" d="M76.5,173.4c-0.2,0-6.1-0.1-8-0.9l0.2-0.4c1.9,0.7,7.8,0.8,7.9,0.8L76.5,173.4z"/>
				</g>
			</g>
			<path class="st9" d="M112.6,131.4c4.5,1.2,9.3,4.2,5.2,16.7c-4.1,12.6-7.7,17.9-14.8,22.2c-5.6,3.4-17.7,4.8-17.7,4.8
				c-2.2-2-3.8-6-4-9.2c0,0,16.4-5.1,17.9-8.3c1.5-3.3,6.8-19.2,10.6-21.3C113.4,134.4,112.6,131.4,112.6,131.4z"/>
		</g>
		<g>
			<g>
				<g>
					<path class="st6" d="M135.6,205.2l6.6,4.5c4.3,2.6,11.9,20.9,3.8,23.8c-6,2.2-7.3-5.6-8-11c-0.7-4.8-0.6-9-0.6-9l-4.6-1.6
						L135.6,205.2z"/>
					<path class="st7" d="M144.1,234.1c-0.7,0-1.4-0.2-2.1-0.6c-2.9-1.8-3.7-7.3-4.2-11c-0.6-4.2-0.6-8-0.6-8.8l-4.7-1.7l2.9-7.3
						l6.9,4.7c3.1,1.9,8.1,12,7.4,18.7c-0.3,2.8-1.5,4.7-3.7,5.5C145.4,234,144.7,234.1,144.1,234.1z M133.1,211.8l4.5,1.6l0,0.2
						c0,0-0.1,4.2,0.6,8.9c0.5,3.6,1.3,9,4,10.7c1,0.6,2.2,0.7,3.7,0.1c2-0.7,3.1-2.4,3.4-5.1c0.6-6.5-4.2-16.5-7.2-18.3l-6.4-4.4
						L133.1,211.8z"/>
				</g>
				<g>
					<path class="st9" d="M144,211c3.3,1.7,5.5,7.3,6.3,12.2c0.8,5,1.2,12.5-3.4,13c-4.7,0.4,2-8.3,2-8.3l-2.4-10.6L144,211z"/>
					<path class="st5" d="M143.1,210l2.9,13.3l-1.3-2.5l-6,1.1l0.4,2.8c0,0-0.7-1.2-1.4-2.6c0,0,0,0.1,0,0.1
						c0.1,4.8,3.1,16.2,9.2,14C154.6,233.4,147.4,213.9,143.1,210z"/>
					<g>
						<g>
							<path class="st7" d="M142.4,231l-0.3-0.3c0.7-0.6,2.9-1.2,4.2-0.8l-0.1,0.4C145.1,230,143,230.5,142.4,231z"/>
						</g>
						<g>
							<path class="st7" d="M141.6,228.6l-0.3-0.4c1.1-0.8,2.7-1.1,4.8-0.9l-0.1,0.4C144.1,227.5,142.7,227.8,141.6,228.6z"/>
						</g>
						<g>
							<path class="st7" d="M140.5,225.9l-0.3-0.3c1.3-1,2.9-1.5,4.8-1.5l0,0.4C143.2,224.4,141.7,224.9,140.5,225.9z"/>
						</g>
					</g>
					<path class="st9" d="M146.7,231.8c-2.2,0-4.6,0.6-6.1,1.1c1.5,2.6,3.6,4.3,6.3,3.4c1.8-0.6,2.7-2.1,3.2-4.1
						C149.4,231.9,148.3,231.7,146.7,231.8z"/>
				</g>
			</g>
			<g>
				<path class="st8" d="M109.7,165.5c0,0,6.2,0.6,8.4,0.9c2.5,0.4,3.7,0.1,3.5,6.2c-0.2,6.1-2.2,14-2.2,14l-2.7,3.9
					c6.4,2.7,12.7,7.5,18.8,13.9c0.6,3,0.2,5.7-1.7,8c0,0-37-5.4-38.2-18.5C94.4,180.9,109.7,165.5,109.7,165.5z"/>
				<path class="st7" d="M116.7,190.6l2.7-3.9c0,0,2-7.9,2.2-14c0.2-6.1-1-5.8-3.5-6.2c-0.9-0.2-2.5-0.3-4-0.5
					c5.9,9.2-2.9,22.6-2.9,22.6S114.2,189.6,116.7,190.6z"/>
				<g>
					<path class="st7" d="M116.6,190.8c-2.2-1-5.9-2.1-9-2.6l0.1-0.4c3.1,0.5,6.8,1.6,9.1,2.7L116.6,190.8z"/>
				</g>
			</g>
		</g>
	</g>
	<g style="clip-path:url(#SVGID_00000076584877236233132550000011311637058366902195_);">
		<path class="st7" d="M156.6,192.4c-1.1,0-2.1-0.5-2.7-1.5c-0.4-0.8-0.5-1.8-0.2-2.7c0.3-0.8,0.7-1.3,1.4-1.6
			c2-0.9,3.9-1.9,5.5-3.1l0.4-0.3c0.8-0.6,1.8-1.3,2.6-2c-0.4-0.1-0.9-0.3-1.2-0.3l-0.6-0.1c-1.3-0.3-2.7-0.6-4-1.4
			c-1.7-1.1-2.6-2.9-2.2-4.7c0.3-1.5,1.4-2.6,2.5-3.6c1.9-1.6,4-2.9,6.1-4.2c2.4-1.4,4.8-2.8,6.8-4.8c0.1-0.1,0.3-0.3,0.4-0.5
			c0.1-0.2,0.3-0.3,0.4-0.5c-1-0.3-2.6-0.8-2.7-0.8c-0.5-0.1-1.1-0.3-1.7-0.4c-2.4-0.5-5-1-6.6-2.8c-0.9-1-1.3-2.1-1.1-3.2
			c0.1-1.6,1.2-3.2,2.8-4.5c2.4-1.8,5.1-3.2,8.1-4c1.3-0.4,2.4,0.4,2.8,1.3c0.4,0.9,0.3,2.3-0.9,3c-2,1.2-3.7,2.3-5.2,3.5l1.2,0.3
			c0.4,0.1,0.9,0.2,1.4,0.3c3.7,0.8,8.3,1.8,8.7,6.2l0,0c0.4,4.7-4.9,8.1-7.7,9.9c-0.9,0.6-1.9,1.2-2.8,1.7
			c-0.7,0.4-1.5,0.9-2.2,1.3c-0.8,0.5-1.6,1-2.4,1.6c0.2,0,0.3,0.1,0.5,0.1c1.1,0.3,2.3,0.5,3.3,1.2c2.3,1.5,4,4.3,2.7,7
			c-1,2-2.9,3.5-4.7,4.8l-0.4,0.3c-2.1,1.6-4.3,2.9-6.8,3.9C157.7,192.3,157.1,192.4,156.6,192.4z M171.4,145.8
			c-0.2,0-0.4,0-0.6,0.1c-2.9,0.8-5.6,2.1-7.9,3.9c-1.5,1.2-2.5,2.7-2.6,4.1c-0.1,1,0.2,2,1,2.9c1.5,1.6,4.1,2.2,6.4,2.6
			c0.6,0.1,1.2,0.2,1.8,0.4c0.2,0,2.2,0.7,3.1,0.9l0.2,0.1l-0.1,0.4l-0.1,0c-0.2,0.2-0.4,0.4-0.6,0.6c-0.1,0.2-0.3,0.4-0.5,0.5
			c-2,2-4.5,3.4-6.9,4.8c-2.1,1.2-4.2,2.5-6.1,4.1c-1.1,0.9-2.1,2-2.4,3.3c-0.4,1.6,0.4,3.3,2,4.2c1.2,0.7,2.5,1,3.8,1.3l0.6,0.1
			c0.4,0.1,1.1,0.3,1.6,0.5l0.3,0.1l-0.2,0.2c-0.8,0.9-2,1.7-2.9,2.3l-0.4,0.3c-1.7,1.2-3.6,2.2-5.6,3.1c-0.5,0.2-0.9,0.7-1.1,1.3
			c-0.3,0.8-0.2,1.7,0.2,2.3c0.9,1.5,2.6,1.5,3.7,1c2.4-1,4.6-2.3,6.7-3.9l0.4-0.3c1.7-1.3,3.7-2.8,4.6-4.6c1.2-2.4-0.4-5-2.5-6.4
			c-0.9-0.6-2.1-0.9-3.1-1.1c-0.3-0.1-0.6-0.1-1-0.2l-0.5-0.1l0.4-0.4c0.1,0,0.1-0.1,0.2-0.1c0.8-0.6,1.7-1.2,2.5-1.7
			c0.7-0.5,1.5-0.9,2.2-1.3c0.9-0.5,1.9-1.1,2.8-1.7c2.8-1.8,7.9-5.1,7.5-9.5l0,0c-0.4-4-4.8-5-8.3-5.8c-0.5-0.1-1-0.2-1.4-0.3
			l-2.1-0.5l0.3-0.3c0.1-0.1,0.1-0.1,0.2-0.1c1.6-1.3,3.4-2.5,5.4-3.7c1-0.6,1.1-1.6,0.7-2.4C172.8,146.4,172.3,145.8,171.4,145.8z"
			/>
	</g>
	<g style="clip-path:url(#SVGID_00000076584877236233132550000011311637058366902195_);">
		<path class="st7" d="M26.4,256.6c-1.6,0-3.1-0.1-4.5-0.4c-4.4-0.7-8.1-2.8-10.6-6c-1.6-2.1-4.2-6.2-3.7-10.8
			c0.1-0.7,0.6-1.3,1.3-1.6c0.6-0.2,1.1,0,1.5,0.4c1.2,1.3,2,2.8,2.8,4.3c0.7,1.2,1.4,2.5,2.2,3.6c0.3,0.3,0.6,0.7,0.9,1
			c-0.7-1.6-1.2-3.1-1.7-4.4c-1.2-3.4-2.3-7-2.8-10.7c-0.2-1.4,1.2-2.7,2.5-2.9c1.4-0.2,2.7,0.7,3.2,2.1c0.6,1.8,1,3.7,1.4,5.5
			c0.4,1.5,0.7,3,1.2,4.5c0.2,0.7,0.4,1.4,0.6,2c0.2-1.6,0.4-3,0.7-4.5c0.1-0.9,0.3-1.7,0.4-2.6c0.5-3.1,1-6.3,1.6-9.3
			c0.2-0.7,0.6-1.3,1.3-1.7c0.7-0.4,1.6-0.6,2.3-0.4c1.7,0.5,2.3,2.1,2,3.6c-0.3,2.3-0.8,4.6-1.2,6.8c-0.3,1.6-0.6,3.2-0.9,4.7
			c-0.2,0.9-0.3,1.9-0.5,2.8c-0.2,1-0.3,2-0.5,3c-0.1,0.4-0.1,0.9-0.2,1.4c0,0.1,0,0.2-0.1,0.4c0.7-0.9,1.4-1.8,2.1-2.7l0.6-0.7
			c2.1-2.6,4.2-5.3,6.4-8.3c1.1-1.4,2.6-1.8,4-1c0.7,0.4,1.3,1.2,1.4,2.1c0.1,0.7,0,1.4-0.4,1.9c-2.5,3.2-4.8,6.1-7.1,8.8
			c-0.9,1-1.7,1.9-2.4,2.8c0.8-0.1,1.6-0.3,2.4-0.6c3.2-1,5.9-2.8,8.4-4.6c1.4-1,2.8-0.3,3.5,0.5c0.9,1.1,1.2,2.8,0,4
			C39.9,254.6,32.7,256.6,26.4,256.6z M9.3,238.3c-0.1,0-0.2,0-0.3,0c-0.5,0.2-0.9,0.6-0.9,1.1c-0.5,4.4,2.1,8.5,3.6,10.4
			c2.4,3.1,6,5.1,10.3,5.8c6.9,1.1,16.4-0.4,22.3-6.3c1-1,0.8-2.5,0-3.4c-0.6-0.7-1.7-1.3-2.9-0.4l0,0c-2.6,1.8-5.2,3.7-8.5,4.6
			c-1,0.3-2.1,0.5-3.2,0.7l-0.7,0.1l0.5-0.5c0.9-1,1.8-2,2.9-3.3c2.3-2.7,4.6-5.5,7.1-8.7c0.3-0.4,0.4-1,0.3-1.6
			c-0.1-0.7-0.6-1.5-1.2-1.8c-1.4-0.8-2.7,0-3.4,0.9c-2.2,3-4.3,5.7-6.4,8.3l-0.6,0.7c-0.9,1.1-1.8,2.2-2.6,3.3l-0.6,0.7l0.1-0.8
			c0.1-0.4,0.1-0.8,0.2-1.2c0.1-0.5,0.1-0.9,0.2-1.4c0.2-1,0.3-2,0.5-3c0.2-0.9,0.3-1.9,0.5-2.8c0.3-1.6,0.6-3.2,0.9-4.7
			c0.4-2.2,0.9-4.5,1.2-6.8c0.2-1.1-0.2-2.6-1.7-3c-0.6-0.2-1.4-0.1-2,0.3c-0.5,0.3-0.9,0.8-1,1.4c-0.7,3.1-1.2,6.2-1.6,9.3
			c-0.1,0.9-0.3,1.7-0.4,2.6c-0.3,1.8-0.5,3.5-0.8,5.5l-0.1,1.1l-0.5-1.7c-0.2-0.8-0.5-1.6-0.7-2.4c-0.4-1.5-0.8-3-1.2-4.5
			c-0.4-1.8-0.9-3.7-1.4-5.4c-0.4-1.2-1.5-1.9-2.6-1.7c-1,0.1-2.3,1.1-2.1,2.3c0.5,3.6,1.6,7.2,2.8,10.6c0.5,1.4,1.1,3.1,1.9,4.8
			l0.7,1.5l-0.8-0.6c-0.7-0.5-1.3-1.1-1.8-1.8c-0.9-1.1-1.6-2.4-2.3-3.7c-0.8-1.4-1.6-2.9-2.8-4.2C9.8,238.4,9.5,238.3,9.3,238.3z"
			/>
	</g>
	<g style="clip-path:url(#SVGID_00000076584877236233132550000011311637058366902195_);">
		<path class="st7" d="M84.3,112c-1.6,0-3.2-0.8-4.1-2.2c-0.9-1.3-0.9-2.8-0.2-4.3c0.9-1.8,1.1-3.9,0.4-5.7c-0.5-1.5-1.6-2.7-3-3.4
			c-3.3-1.5-7.9,0.2-10.4,2.7c-1.2,1.2-3.1,1.6-4.8,1c-1.5-0.6-2.4-1.9-2.5-3.5c-0.3-4.9,5.7-7.6,9.2-8.8c4.2-1.4,8.6-1.3,12.2,0.4
			l0,0c3.6,1.7,6.4,4.7,7.7,8.5c1.5,4.1,1.2,8.8-0.8,12.8c-0.7,1.5-1.9,2.3-3.4,2.4C84.5,112,84.4,112,84.3,112z M74.5,95.3
			c1.1,0,2.1,0.2,3,0.6c1.6,0.7,2.7,2,3.3,3.7c0.7,1.9,0.5,4.1-0.5,6.1c-0.6,1.3-0.6,2.7,0.2,3.8c0.9,1.3,2.5,2.1,4,2
			c1.3-0.1,2.4-0.9,3-2.2c1.9-3.9,2.2-8.4,0.7-12.5c-1.3-3.7-4-6.6-7.5-8.2l0,0c-3.5-1.6-7.7-1.7-11.8-0.4c-3.4,1.2-9.2,3.8-8.9,8.3
			c0.1,1.4,0.9,2.5,2.2,3c1.5,0.6,3.2,0.2,4.3-0.9C68.5,96.9,71.6,95.3,74.5,95.3z"/>
	</g>
	<g style="clip-path:url(#SVGID_00000076584877236233132550000011311637058366902195_);">
		<path class="st7" d="M27.5,189.3c-0.5,0-1,0-1.5-0.1c-4.2-0.6-8.5-3.7-11.1-7.8c-3.5-5.6-4.8-13.4-3.5-20.9l0.2,0l-0.2,0
			c1.9-11.7,10-23.1,23.9-22.4c5.6,0.3,10.7,2.8,14.4,7c3.7,4.3,5.6,10,5.1,15.7c-0.5,6.2-3.8,11.8-8.8,15
			c-5.5,3.5-12.7,2.9-17.3-1.2c-4.5-4.1-5.5-11.4-2.4-16.7c1.7-2.8,4.6-4.6,7.9-4.7c3.1-0.2,5.9,1.2,7.8,3.7
			c1.6,2.1,1.4,4.7-0.4,6.3c-0.9,0.8-2.3,1.2-3.6,1.1c-1.2-0.1-2.1-0.7-2.8-1.5c-0.2-0.3-0.6-0.7-0.9-0.6c-0.7,0.4-0.9,3.3-0.5,4.2
			c0.4,1.1,1.2,2,2.4,2.4c1.5,0.5,3.3,0.4,4.8-0.5c5.5-3.2,6-10.5,3.3-15.5c-2.7-5-9.3-7.1-14.9-4.9c-6.9,2.8-9.4,11.5-9.4,18.1
			c0,2.5,0.4,7.2,2.8,11c1.8,2.7,4.5,3.9,8,3.5c1.7-0.2,3.4,0.8,4.1,2.4c0.6,1.4,0.3,2.9-1,4C32,188.4,29.8,189.3,27.5,189.3z
			 M33.9,138.4c-12.8,0-20.3,10.9-22.1,22l0,0c-1.2,7.4,0.1,15.1,3.5,20.6c2.4,3.9,6.8,7,10.7,7.6c2.8,0.4,5.4-0.4,7.5-2.2
			c1.1-0.9,1.4-2.2,0.8-3.4c-0.6-1.4-2.1-2.3-3.6-2.1c-3.7,0.4-6.6-0.9-8.5-3.8c-2.5-3.9-2.9-8.7-2.9-11.3c0-6.8,2.6-15.7,9.7-18.5
			c5.9-2.3,12.7-0.1,15.5,5.1c2.8,5.2,2.3,12.9-3.5,16.2c-1.6,0.9-3.6,1.1-5.2,0.5c-1.3-0.5-2.2-1.4-2.6-2.7c-0.3-1-0.3-4.3,0.7-4.8
			c0.4-0.2,0.9,0,1.5,0.7c0.5,0.7,1.4,1.2,2.4,1.3c1.2,0.1,2.4-0.2,3.2-1c1.9-1.7,1.5-4.1,0.3-5.7c-1.7-2.4-4.4-3.6-7.4-3.5
			c-3.1,0.2-5.9,1.8-7.5,4.5c-3,5-2,12.1,2.3,16.1c4.4,4,11.4,4.5,16.7,1.2c4.9-3.1,8.1-8.6,8.6-14.6c0.5-5.6-1.4-11.2-5-15.4
			c-3.6-4.2-8.6-6.6-14.1-6.9C34.7,138.5,34.3,138.4,33.9,138.4z"/>
	</g>
	<g style="clip-path:url(#SVGID_00000076584877236233132550000011311637058366902195_);">
		<path class="st7" d="M174.6,125.9c-0.8,0-1.5-0.3-2.2-0.9c-1.4-1.3-1.2-3.3-1.1-5c0-0.2,0-0.4,0-0.6c0.2-2.5,0.4-5.1,0.8-7.7
			c-2.9,2.8-6,5.3-9,7.4c-2.1,1.5-6.6,3.6-9.5,2.4c-1.4-0.6-2.3-1.9-2.6-3.9c-0.9-5.7,6.4-9.4,9.5-11c2.6-1.3,5.4-2.4,8.8-3.5
			c-2.2-0.6-4.7-1.3-7.1-2.2c-2.1-0.8-3.7-2.2-4.2-3.9c-0.4-1.3-0.2-2.6,0.7-3.8c2.4-3.5,7.5-2.6,11.2-2l0.7,0.1
			c1.1,0.2,2.2,0.4,3.3,0.6c1.1,0.2,2.2,0.4,3.3,0.6c-0.1-0.1-0.2-0.1-0.3-0.2c-1.5-0.9-3.1-1.9-4.1-3.4c-1-1.4-1.3-3.1-0.7-4.6
			c0.6-1.7,2-3.1,3.8-3.7c4.3-1.4,9.7,0.3,12.6,1.5c1,0.4,2.1,0.9,3.1,1.5c1.3,0.6,2.7,1.3,4.3,2.1c0.3,0.2,0.6,0.3,0.9,0.5
			c1.6,0.8,3.3,1.6,4.1,3.3l0,0c0.3,0.6,0.3,1.2,0,1.7c0,0.1,0,0.2,0,0.3c0,0.1,0,0.2,0,0.3l0,0l0,0.3l-3.3,14.2
			c-0.1,0.3-0.1,0.6-0.2,1c-0.6,2.9-1.4,6.6-4.7,7.7c-3.3,1.2-6.8-1.2-8.6-3.9c-0.2-0.3-0.4-0.7-0.6-1c-0.2,1-0.5,2-0.8,3l-0.1,0.5
			c-1,3.6-2.3,8.6-5.2,11.1C176.5,125.5,175.5,125.9,174.6,125.9z M172.8,110.4l-0.1,0.7c-0.4,2.8-0.7,5.6-0.9,8.3
			c0,0.2,0,0.4,0,0.6c-0.1,1.6-0.3,3.5,0.9,4.6c1.3,1.3,3.1,0.8,4.2-0.2c2.8-2.5,4.1-7.4,5-10.9l0.1-0.5c0.3-1.2,0.6-2.5,0.9-3.7
			l0.2-0.7l0.3,0.6c0.3,0.6,0.5,1.1,0.8,1.5c1.7,2.6,4.9,4.8,8,3.8c3-1.1,3.8-4.4,4.4-7.4c0.1-0.3,0.1-0.7,0.2-1l3.3-14.2
			c0-0.2,0.1-0.4,0.1-0.5c0-0.1,0-0.2,0-0.3l0-0.1l0-0.1c0.3-0.4,0.3-0.9,0.1-1.3l0,0c-0.8-1.5-2.4-2.3-3.9-3.1
			c-0.3-0.2-0.6-0.3-0.9-0.5c-1.5-0.8-2.9-1.5-4.3-2.1c-1-0.6-2.1-1.1-3.1-1.5c-2.8-1.2-8.1-2.9-12.2-1.5c-1.7,0.6-3,1.8-3.5,3.4
			c-0.5,1.4-0.2,2.9,0.7,4.2c1,1.4,2.5,2.3,4,3.2c0.2,0.1,0.4,0.3,0.6,0.4l1.6,1l-1.1-0.2c-1.5-0.2-3-0.5-4.4-0.8
			c-1.1-0.2-2.2-0.4-3.3-0.6l-0.7-0.1c-3.6-0.6-8.5-1.4-10.7,1.8c-0.8,1.1-1,2.3-0.6,3.4c0.5,1.5,2,2.9,3.9,3.6
			c2.7,1,5.5,1.8,7.9,2.4l0.8,0.2l-0.8,0.2c-3.8,1.2-6.8,2.3-9.5,3.7c-3,1.5-10.1,5.1-9.3,10.5c0.3,1.8,1.1,3,2.3,3.5
			c2.8,1.2,7-0.9,9.1-2.3c3.2-2.2,6.3-4.8,9.4-7.8L172.8,110.4z"/>
	</g>
	<g style="clip-path:url(#SVGID_00000076584877236233132550000011311637058366902195_);">
		<path class="st7" d="M196.4,258.1c-6,0-11.9-1.6-17-5.3c-5.6-4.1-9.8-10.3-11.9-17.5c-1.2-4-1.7-8.4-1.6-12.7
			c0.1-3.7,0.3-8.8,3.1-12c0.5-0.6,1.3-0.8,2.2-0.7c0.8,0.1,1.5,0.6,1.9,1.3c1.3,2.5,1.3,5.4,1.2,8.1c0,0.8,0,1.6,0,2.4
			c0.1,3.8,0.5,7,1.3,9.8c1.5,5.8,4.4,10.6,8.3,13.6c4.2,3.3,10.3,4.8,17.1,4.1c6.4-0.6,11.8-3.6,17.4-6.7l0.3-0.2
			c1.7-1,3.6-0.2,4.5,1.1c0.8,1.2,1,2.9-0.4,4.2C216.1,253.7,206.2,258.1,196.4,258.1z M170.8,210.3c-0.6,0-1.1,0.2-1.5,0.6
			c-2.8,3-2.9,8-3,11.7c-0.1,4.2,0.4,8.5,1.6,12.5c2.1,7.2,6.2,13.3,11.7,17.3c13.4,9.8,32.2,4.7,42.9-5.1c1.3-1.2,1-2.7,0.3-3.6
			c-0.8-1.1-2.4-1.8-3.9-1l-0.3,0.2c-5.7,3.2-11.1,6.2-17.6,6.8c-6.9,0.6-13.1-0.9-17.5-4.2c-3.9-3.1-6.9-8-8.5-13.8
			c-0.7-2.9-1.2-6-1.3-9.9c0-0.8,0-1.7,0-2.5c0-2.7,0-5.5-1.2-7.9c-0.3-0.5-0.8-0.9-1.5-1C171.1,210.3,170.9,210.3,170.8,210.3z"/>
	</g>
	<g style="clip-path:url(#SVGID_00000076584877236233132550000011311637058366902195_);">
		<path class="st12" d="M34,56c0-0.7,0-1.5-0.1-2.3h-0.7c-0.8,0-1.5-0.1-2.2-0.3c-0.7-0.2-1.3-0.5-1.8-0.9c-0.5-0.4-0.9-0.9-1.2-1.5
			s-0.4-1.2-0.4-1.9c0-0.5,0.1-0.9,0.2-1.4s0.4-0.8,0.7-1.1c0.3-0.3,0.6-0.6,1.1-0.8c0.4-0.2,0.9-0.3,1.4-0.3c0.7,0,1.3,0.1,1.8,0.4
			c0.5,0.3,1,0.6,1.4,1c0.4,0.4,0.8,0.9,1.1,1.5c0.3,0.6,0.6,1.2,0.8,1.8c0.2-0.1,0.4-0.2,0.5-0.4c0.2-0.2,0.3-0.3,0.5-0.5
			c0.1-0.3,0.3-0.5,0.4-0.5c0.1,0,0.3,0.1,0.4,0.2c0.1,0.1,0.3,0.3,0.4,0.5c0.1,0.2,0.2,0.4,0.3,0.6c0.1,0.2,0.1,0.5,0.1,0.7
			c0,0.5-0.2,0.9-0.6,1.2c-0.4,0.4-0.9,0.7-1.5,1c0.1,0.5,0.1,1,0.2,1.5c0,0.5,0.1,1,0.1,1.4c0,2.3-0.2,4.4-0.7,6.1
			c-0.5,1.7-1.1,3.1-1.9,4.2c-0.8,1.1-1.7,1.9-2.7,2.5c-1,0.5-2.1,0.8-3.1,0.8c-1.4,0-2.5-0.3-3.6-1s-1.9-1.5-2.6-2.6
			c-0.7-1.1-1.2-2.4-1.6-3.9c-0.4-1.5-0.5-3-0.5-4.7c0-2.1,0.2-3.9,0.6-5.5c0.4-1.6,0.8-3,1.4-4.1c0.6-1.1,1.2-2.1,1.8-2.9
			c0.7-0.8,1.3-1.4,1.9-1.8c0.6-0.5,1.1-0.8,1.5-1c0.4-0.2,0.6-0.3,0.7-0.3c0.1,0,0.1,0,0.2-0.1s0.1,0,0.2,0c0.2,0,0.4,0.1,0.5,0.2
			c0.2,0.1,0.3,0.3,0.4,0.5c0.1,0.2,0.2,0.4,0.3,0.6c0.1,0.2,0.1,0.4,0.1,0.7c0,0.2,0,0.4-0.1,0.6c-0.1,0.2-0.2,0.2-0.4,0.2
			c-0.1,0-0.2,0-0.2,0c-0.2,0.1-0.5,0.3-0.9,0.5c-0.4,0.2-0.8,0.5-1.2,1s-0.9,0.9-1.3,1.5c-0.4,0.6-0.9,1.4-1.2,2.3
			c-0.4,0.9-0.7,1.9-0.9,3.1c-0.2,1.2-0.3,2.6-0.3,4.2c0,1.7,0.2,3.1,0.5,4.3c0.3,1.2,0.7,2.2,1.2,3c0.5,0.8,1.1,1.4,1.7,1.8
			c0.6,0.4,1.3,0.6,2,0.6c0.8,0,1.5-0.2,2.1-0.7c0.7-0.5,1.2-1.2,1.7-2.1c0.5-0.9,0.9-2.1,1.1-3.4C33.8,59.3,34,57.7,34,56z
			 M33.5,51.2c-0.1-0.4-0.2-0.8-0.3-1.2s-0.3-0.7-0.5-0.9c-0.2-0.3-0.4-0.5-0.6-0.6c-0.2-0.2-0.5-0.2-0.8-0.2
			c-0.4,0-0.6,0.1-0.7,0.3s-0.2,0.4-0.2,0.6c0,0.2,0.1,0.4,0.2,0.7c0.1,0.2,0.3,0.5,0.5,0.7c0.2,0.2,0.5,0.4,0.9,0.5
			c0.4,0.1,0.8,0.2,1.3,0.2H33.5z"/>
		<path class="st12" d="M49.9,69.6c-0.4,0-0.8-0.1-1.2-0.2c-0.3-0.1-0.6-0.3-0.9-0.6c-0.3-0.2-0.5-0.5-0.6-0.8
			c-0.2-0.3-0.3-0.7-0.3-1c-0.4,0.8-1,1.4-1.6,1.9s-1.3,0.7-2.1,0.7c-0.6,0-1.2-0.1-1.7-0.4c-0.5-0.3-0.9-0.6-1.2-1.1
			c-0.3-0.5-0.6-1-0.8-1.7c-0.2-0.7-0.3-1.4-0.3-2.2c0-1,0.1-2,0.2-3c0.1-1,0.3-1.9,0.5-2.7c0.2-0.9,0.4-1.8,0.7-2.7
			c0.1-0.2,0.1-0.3,0.1-0.5c0-0.2,0.1-0.3,0.2-0.4c0.1-0.1,0.3-0.2,0.5-0.3c0.2-0.1,0.6-0.1,1.1-0.1c0.5,0,0.8,0.1,0.9,0.2
			s0.2,0.4,0.2,0.6c0,0.2-0.1,0.4-0.2,0.7c-0.1,0.2-0.2,0.4-0.2,0.6c-0.2,0.7-0.3,1.3-0.5,1.9c-0.1,0.6-0.2,1.1-0.3,1.7
			c-0.1,0.6-0.2,1.2-0.2,1.8c0,0.6-0.1,1.3-0.1,2.1c0,1,0.1,1.8,0.4,2.3c0.3,0.5,0.7,0.8,1.3,0.8c0.4,0,0.7-0.1,1-0.4
			c0.3-0.3,0.6-0.6,0.9-1.1c0.3-0.5,0.5-1,0.7-1.6c0.2-0.6,0.3-1.2,0.5-1.9v-6c0-0.3,0-0.5-0.1-0.6c0-0.2-0.1-0.3-0.1-0.4
			c0-0.1-0.1-0.2-0.1-0.2s-0.1-0.1-0.1-0.2c0-0.1,0-0.1,0.1-0.2c0.1,0,0.2-0.1,0.3-0.1c0.1,0,0.3-0.1,0.4-0.1c0.1,0,0.3,0,0.4,0
			c0.6,0,1.1,0.2,1.5,0.5c0.4,0.3,0.5,0.7,0.5,1.2v9.4c0,0.1,0,0.2,0,0.4c0,0.2,0,0.4,0.1,0.6s0.2,0.4,0.3,0.5s0.3,0.2,0.6,0.2
			c0.4,0,0.7-0.1,1-0.4c0.3-0.3,0.5-0.6,0.7-1c0.2-0.4,0.4-0.8,0.5-1.3c0.1-0.5,0.2-0.9,0.3-1.3c0.1-0.4,0.2-0.7,0.4-0.8
			c0.2-0.2,0.3-0.3,0.5-0.3c0.1,0,0.3,0,0.5,0.1c0.2,0.1,0.3,0.2,0.4,0.4s0.2,0.3,0.3,0.5c0.1,0.2,0.1,0.4,0.1,0.5c0,0,0,0.1,0,0.1
			s0,0.1,0,0.2c-0.2,0.6-0.4,1.3-0.7,1.9c-0.3,0.7-0.6,1.3-1,1.9s-0.9,1-1.5,1.4C51.4,69.4,50.7,69.6,49.9,69.6z"/>
		<path class="st12" d="M61.3,69.6c-0.4,0-0.9-0.1-1.3-0.2s-0.9-0.4-1.2-0.7S58,68,57.8,67.5c-0.2-0.5-0.4-1.2-0.4-2
			c0-1.2,0.2-2.5,0.5-3.8c0.3-1.3,0.8-2.8,1.4-4.4h-2.8h-0.4c0,0.4,0,0.8-0.1,1.4s-0.1,1.1-0.2,1.8c-0.1,0.6-0.2,1.3-0.3,1.9
			c-0.1,0.6-0.3,1.2-0.4,1.8c-0.1,0.4-0.3,0.6-0.6,0.7c-0.3,0.1-0.5,0-0.8-0.1c-0.3-0.2-0.5-0.4-0.6-0.7C53,63.6,53,63.3,53.1,63
			c0.1-0.4,0.2-0.8,0.3-1.4c0.1-0.5,0.1-1.1,0.2-1.7c0-0.6,0.1-1.2,0.1-1.8c0-0.6,0-1.1,0.1-1.6c-0.5-0.3-0.8-0.6-1.1-1
			c-0.3-0.4-0.5-0.9-0.5-1.4c0-0.3,0.1-0.5,0.2-0.7c0.1-0.2,0.2-0.4,0.4-0.5c0.2-0.2,0.4-0.3,0.6-0.3s0.5-0.1,0.7-0.1
			c0.2,0,0.4,0,0.7,0.1c0.2,0.1,0.5,0.2,0.7,0.3c0.2,0.2,0.4,0.4,0.6,0.6c0.2,0.3,0.3,0.6,0.4,0.9c0.3,0,0.6,0.1,0.8,0.1
			s0.4,0,0.5,0s0.3,0,0.4,0s0.2,0,0.3,0h1.9c0.1,0,0.3,0.1,0.5,0.2c0.2,0.1,0.4,0.3,0.6,0.5c0.2,0.2,0.4,0.4,0.5,0.7
			c0.1,0.2,0.2,0.5,0.2,0.7c0,0.1,0,0.2-0.1,0.5c-0.1,0.3-0.2,0.6-0.3,1.1c-0.1,0.4-0.3,0.9-0.4,1.5c-0.1,0.6-0.3,1.1-0.4,1.7
			c-0.1,0.6-0.2,1.2-0.3,1.9c-0.1,0.6-0.1,1.3-0.1,1.9c0,0.3,0,0.5,0.1,0.7c0.1,0.2,0.2,0.5,0.3,0.6c0.1,0.2,0.3,0.3,0.5,0.4
			c0.2,0.1,0.4,0.2,0.7,0.2c0.4,0,0.8-0.1,1.1-0.4c0.3-0.3,0.6-0.6,0.8-1c0.2-0.4,0.4-0.8,0.5-1.3c0.1-0.5,0.2-0.9,0.3-1.3
			c0.1-0.4,0.2-0.7,0.4-0.8c0.2-0.2,0.3-0.3,0.5-0.3c0.1,0,0.3,0,0.5,0.1c0.2,0.1,0.3,0.2,0.4,0.4c0.1,0.1,0.2,0.3,0.3,0.5
			s0.1,0.4,0.1,0.5c0,0.1,0,0.1,0,0.1c0,0,0,0.1,0,0.1c-0.2,0.6-0.4,1.3-0.7,1.9c-0.3,0.7-0.6,1.3-1,1.9c-0.4,0.6-0.9,1-1.5,1.4
			S62.1,69.6,61.3,69.6z"/>
		<path class="st12" d="M91.1,67.9c0.1,0.1,0.2,0.2,0.1,0.4c-0.1,0.2-0.2,0.4-0.5,0.6c-0.2,0.2-0.5,0.4-0.8,0.5
			c-0.3,0.1-0.6,0.2-0.9,0.2c-0.3,0-0.6-0.1-0.9-0.3c-0.3-0.2-0.5-0.4-0.8-0.8c-0.2-0.4-0.4-0.8-0.5-1.3c-0.1-0.5-0.2-1.2-0.2-1.9
			V48.2c0-0.7-0.1-1.2-0.2-1.6c-0.1-0.4-0.3-0.7-0.5-0.8c-0.2-0.2-0.4-0.3-0.6-0.3c-0.2,0-0.4,0-0.5,0c-0.1,0-0.3,0-0.5,0.1
			c-0.2,0-0.4,0.2-0.6,0.4c-0.2,0.2-0.3,0.5-0.5,0.9s-0.2,1-0.2,1.8v20c0,0,0.1,0,0.1,0.1c0,0,0.1,0.1,0.1,0.1
			c0,0.1-0.1,0.2-0.2,0.3c-0.1,0.1-0.3,0.2-0.5,0.3c-0.2,0.1-0.4,0.2-0.7,0.2c-0.3,0.1-0.5,0.1-0.7,0.1c-0.2,0-0.5,0-0.6-0.1
			c-0.2-0.1-0.3-0.3-0.3-0.6V48.2c0-0.7-0.1-1.2-0.2-1.6c-0.1-0.4-0.3-0.7-0.5-0.8c-0.2-0.2-0.4-0.3-0.6-0.3c-0.2,0-0.4,0-0.5,0
			c-0.1,0-0.3,0-0.5,0c-0.2,0-0.4,0.1-0.6,0.3c-0.2,0.2-0.4,0.5-0.5,0.8c-0.1,0.4-0.2,0.9-0.2,1.6v16.4c0,1.6-0.3,2.9-0.8,3.8
			c-0.5,0.9-1.3,1.3-2.4,1.3c-0.4,0-0.6-0.1-0.9-0.2c-0.2-0.1-0.4-0.3-0.5-0.5c-0.1-0.2-0.2-0.4-0.3-0.6c-0.1-0.2-0.1-0.4-0.1-0.6
			c0-0.1,0-0.1,0.1-0.2c0.1,0,0.1,0,0.2,0c0.1,0,0.2,0,0.3,0c0.1,0,0.2,0,0.4-0.1c0.1,0,0.2-0.1,0.4-0.3s0.2-0.4,0.3-0.6
			s0.2-0.6,0.2-1.1c0.1-0.4,0.1-0.9,0.1-1.6V48.5c0-1.1,0.1-2,0.4-2.8c0.3-0.7,0.6-1.4,1.1-1.8c0.4-0.5,0.9-0.8,1.5-1
			c0.5-0.2,1.1-0.3,1.7-0.3c0.2,0,0.4,0,0.6,0c0.3,0,0.6,0.1,0.9,0.2c0.3,0.1,0.6,0.3,1,0.5c0.3,0.2,0.6,0.5,0.9,0.8
			c0.2-0.3,0.5-0.6,0.8-0.8c0.3-0.2,0.6-0.4,0.8-0.5c0.3-0.1,0.5-0.2,0.8-0.2c0.2,0,0.5,0,0.6,0c0.6,0,1.2,0.1,1.7,0.3
			c0.6,0.2,1.1,0.5,1.5,1c0.4,0.5,0.8,1.1,1.1,1.8c0.3,0.7,0.4,1.7,0.4,2.8V65c0,0.4,0,0.7,0.1,1c0.1,0.3,0.2,0.6,0.4,0.8
			c0.2,0.2,0.3,0.4,0.5,0.6C90.7,67.7,90.9,67.8,91.1,67.9z"/>
		<path class="st12" d="M101.6,57.8c0,0.7-0.1,1.4-0.4,2.1c-0.2,0.7-0.6,1.4-1.1,2.1c-0.5,0.6-1,1.2-1.7,1.7
			c-0.7,0.5-1.5,0.9-2.4,1.2c0.1,0.3,0.3,0.6,0.5,0.9s0.4,0.5,0.7,0.7c0.3,0.2,0.6,0.4,1,0.5c0.4,0.1,0.8,0.2,1.3,0.2
			c0.7,0,1.3-0.1,1.9-0.4s1-0.6,1.3-1.1s0.6-0.9,0.9-1.5c0.2-0.6,0.4-1.1,0.5-1.7c0.1-0.4,0.3-0.7,0.5-0.8c0.3-0.1,0.5-0.2,0.8-0.1
			c0.3,0.1,0.5,0.2,0.7,0.5c0.2,0.2,0.3,0.5,0.2,0.8c0,0.4-0.1,0.8-0.2,1.3c-0.1,0.5-0.3,1-0.5,1.5c-0.2,0.5-0.5,1-0.9,1.5
			c-0.4,0.5-0.8,0.9-1.3,1.3c-0.5,0.4-1.1,0.7-1.8,0.9c-0.7,0.2-1.5,0.3-2.4,0.3c-0.8,0-1.7-0.2-2.5-0.5c-0.8-0.3-1.5-0.8-2.1-1.4
			s-1.1-1.4-1.5-2.3c-0.4-0.9-0.6-1.9-0.6-3.1c0-1.2,0.2-2.3,0.5-3.3c0.3-1,0.8-1.9,1.3-2.6c0.5-0.7,1.1-1.3,1.8-1.7
			c0.7-0.4,1.4-0.6,2.1-0.6c0.5,0,1,0.1,1.4,0.3c0.4,0.2,0.8,0.4,1.1,0.8c0.3,0.3,0.5,0.7,0.7,1.2C101.5,56.7,101.6,57.2,101.6,57.8
			z M95.6,62.2c0,0.1,0,0.2,0,0.3c0,0.1,0,0.2,0,0.3c0.5-0.2,0.9-0.5,1.2-0.8s0.7-0.7,1-1.2c0.3-0.4,0.5-0.9,0.6-1.4s0.2-1,0.2-1.6
			c0-0.4-0.1-0.7-0.2-1c-0.1-0.2-0.3-0.3-0.6-0.3c-0.3,0-0.6,0.1-0.8,0.3c-0.2,0.2-0.4,0.5-0.6,0.8c-0.2,0.3-0.3,0.7-0.4,1.1
			c-0.1,0.4-0.2,0.8-0.3,1.3c-0.1,0.4-0.1,0.8-0.1,1.2C95.6,61.6,95.6,61.9,95.6,62.2z"/>
		<path class="st12" d="M126.2,63.9c-0.2,0.6-0.4,1.3-0.7,1.9c-0.3,0.7-0.6,1.3-1,1.9s-0.9,1-1.5,1.4c-0.6,0.4-1.3,0.6-2.1,0.6
			c-0.5,0-0.9-0.1-1.3-0.3s-0.7-0.4-1-0.8s-0.5-0.7-0.6-1.1s-0.2-0.9-0.2-1.3v-7.5c0-0.3,0-0.6,0-0.8s0-0.5-0.1-0.7
			c0-0.2-0.1-0.3-0.2-0.5c-0.1-0.1-0.2-0.2-0.4-0.2c-0.3,0-0.6,0.2-0.9,0.5c-0.4,0.4-0.7,0.8-1.1,1.4c-0.3,0.6-0.6,1.2-0.9,2
			s-0.4,1.5-0.5,2.2V68c0,0.2,0,0.4,0,0.6c0,0.2,0,0.4-0.1,0.5c-0.1,0.2-0.2,0.3-0.3,0.4c-0.1,0.1-0.3,0.2-0.6,0.2
			c-0.2,0-0.4,0-0.6-0.1c-0.2,0-0.4-0.1-0.6-0.2c-0.2-0.1-0.3-0.3-0.4-0.5c-0.1-0.2-0.2-0.5-0.2-0.8v-9.4c0-0.3,0-0.6,0-0.8
			c0-0.3-0.1-0.5-0.1-0.7c0-0.2-0.1-0.3-0.2-0.5c-0.1-0.1-0.2-0.2-0.4-0.2c-0.3,0-0.6,0.2-0.9,0.5c-0.4,0.4-0.7,0.8-1.1,1.4
			c-0.3,0.6-0.6,1.2-0.9,2s-0.4,1.5-0.5,2.2V68c0,0.2,0,0.4,0,0.6c0,0.2,0,0.4-0.1,0.5c-0.1,0.2-0.2,0.3-0.3,0.4s-0.3,0.2-0.6,0.2
			c-0.2,0-0.4,0-0.6-0.1c-0.2,0-0.4-0.1-0.6-0.2c-0.2-0.1-0.3-0.3-0.4-0.5c-0.1-0.2-0.2-0.5-0.2-0.8V56.2c0-0.4,0-0.6-0.1-0.8
			c-0.1-0.2-0.1-0.3-0.1-0.4c0-0.2,0.1-0.3,0.3-0.4c0.2-0.1,0.4-0.2,0.7-0.2c0.6,0,1.1,0.2,1.5,0.5c0.4,0.3,0.5,0.7,0.5,1.2v1.6
			c0.2-0.5,0.5-1,0.8-1.4c0.3-0.4,0.6-0.8,0.9-1.1c0.3-0.3,0.7-0.6,1-0.8c0.4-0.2,0.8-0.3,1.2-0.3c0.6,0,1,0.1,1.4,0.3
			c0.4,0.2,0.7,0.5,0.9,0.8s0.4,0.7,0.5,1.1c0.1,0.4,0.2,0.8,0.2,1.2c0.2-0.5,0.5-1,0.8-1.4c0.3-0.4,0.6-0.8,0.9-1.1
			c0.3-0.3,0.7-0.6,1-0.7c0.4-0.2,0.8-0.3,1.2-0.3c0.6,0,1.1,0.1,1.5,0.3s0.7,0.5,0.9,0.9s0.4,0.8,0.5,1.2c0.1,0.4,0.1,0.9,0.1,1.3
			v7.7c0,0.1,0,0.2,0,0.4c0,0.2,0,0.4,0.1,0.6c0.1,0.2,0.2,0.4,0.3,0.5s0.3,0.2,0.6,0.2c0.4,0,0.7-0.1,1-0.4s0.5-0.6,0.7-1
			c0.2-0.4,0.4-0.8,0.5-1.3c0.1-0.5,0.2-0.9,0.3-1.3c0.1-0.4,0.2-0.7,0.4-0.8c0.2-0.2,0.3-0.3,0.5-0.3c0.1,0,0.3,0,0.4,0.1
			c0.2,0.1,0.3,0.2,0.4,0.4s0.2,0.3,0.3,0.5c0.1,0.2,0.1,0.4,0.1,0.5c0,0,0,0.1,0,0.1S126.3,63.8,126.2,63.9z"/>
		<path class="st12" d="M137.8,62.5c0-0.1,0.1-0.3,0.2-0.4c0.1-0.1,0.3-0.2,0.5-0.2c0.2,0,0.4,0,0.6,0s0.4,0.1,0.5,0.2
			s0.3,0.3,0.3,0.5c0.1,0.2,0.1,0.5,0,0.9c-0.1,0.5-0.3,1-0.5,1.4c-0.2,0.4-0.6,0.8-0.9,1.2c-0.4,0.3-0.8,0.6-1.3,0.8
			c-0.5,0.2-1.1,0.3-1.7,0.3c-0.3,0-0.7,0-1-0.1s-0.6-0.1-0.9-0.2c-0.5,0.8-1.1,1.4-1.8,1.9s-1.6,0.7-2.7,0.7
			c-0.9,0-1.8-0.2-2.4-0.6c-0.7-0.4-1.2-0.9-1.7-1.5s-0.8-1.4-1-2.2c-0.2-0.8-0.3-1.7-0.3-2.6c0-1.4,0.2-2.6,0.5-3.7
			c0.3-1.1,0.7-2,1.1-2.8c0.4-0.8,0.8-1.3,1.3-1.7c0.4-0.4,0.7-0.6,0.9-0.6c0.2,0,0.5,0.1,0.7,0.3c0.2,0.2,0.3,0.5,0.4,0.7
			c0.1,0.3,0.1,0.6,0.1,0.9c0,0.3-0.2,0.5-0.4,0.7c-0.1,0.2-0.3,0.5-0.5,0.8c-0.2,0.3-0.4,0.7-0.6,1.1s-0.3,1-0.4,1.7
			c-0.1,0.7-0.2,1.4-0.2,2.4c0,0.8,0.1,1.5,0.2,2c0.1,0.6,0.3,1.1,0.6,1.5c0.2,0.4,0.5,0.7,0.9,0.9c0.3,0.2,0.7,0.3,1,0.3
			c0.5,0,1-0.1,1.3-0.4c0.3-0.3,0.6-0.6,0.9-1c-0.9-0.7-1.5-1.7-2-2.9s-0.7-2.4-0.7-3.7c0-0.6,0.1-1.1,0.2-1.7
			c0.1-0.5,0.3-1,0.6-1.4c0.2-0.4,0.6-0.7,0.9-1c0.4-0.2,0.8-0.4,1.3-0.4c0.4,0,0.8,0.2,1.2,0.5c0.4,0.3,0.7,0.7,1,1.3
			s0.5,1.2,0.7,2s0.2,1.6,0.2,2.5c0,0.7,0,1.4-0.1,2c-0.1,0.7-0.2,1.3-0.4,2c0.1,0,0.3,0.1,0.4,0.1c0.1,0,0.2,0,0.4,0
			c0.4,0,0.8-0.1,1.1-0.2s0.6-0.3,0.8-0.6c0.2-0.2,0.4-0.5,0.5-0.9S137.8,62.8,137.8,62.5z M130.7,59c0,0.8,0.1,1.6,0.4,2.4
			s0.6,1.4,1,2c0.1-0.6,0.1-1.2,0.1-1.7c0-0.6,0-1.2,0-1.7c0-0.5-0.1-1-0.1-1.4c-0.1-0.4-0.2-0.7-0.3-0.9c-0.1-0.2-0.3-0.3-0.5-0.3
			C130.9,57.3,130.7,57.9,130.7,59z"/>
		<path class="st12" d="M145.9,69.6c-0.4,0-0.9-0.1-1.3-0.2s-0.9-0.4-1.2-0.7c-0.4-0.3-0.7-0.8-0.9-1.3c-0.2-0.5-0.4-1.2-0.4-2
			c0-1.2,0.2-2.5,0.5-3.8c0.3-1.3,0.8-2.8,1.4-4.4h-2.8h-0.4c0,0.4,0,0.8-0.1,1.4c0,0.6-0.1,1.1-0.2,1.8c-0.1,0.6-0.2,1.3-0.3,1.9
			c-0.1,0.6-0.3,1.2-0.4,1.8c-0.1,0.4-0.3,0.6-0.6,0.7c-0.3,0.1-0.5,0-0.8-0.1c-0.3-0.2-0.5-0.4-0.6-0.7c-0.2-0.3-0.2-0.6-0.1-0.9
			c0.1-0.4,0.2-0.8,0.3-1.4c0.1-0.5,0.1-1.1,0.2-1.7c0-0.6,0.1-1.2,0.1-1.8c0-0.6,0-1.1,0.1-1.6c-0.5-0.3-0.8-0.6-1.1-1
			c-0.3-0.4-0.5-0.9-0.5-1.4c0-0.3,0.1-0.5,0.2-0.7c0.1-0.2,0.2-0.4,0.4-0.5c0.2-0.2,0.4-0.3,0.6-0.3s0.5-0.1,0.7-0.1
			c0.2,0,0.4,0,0.7,0.1s0.5,0.2,0.7,0.3c0.2,0.2,0.4,0.4,0.6,0.6s0.3,0.6,0.4,0.9c0.3,0,0.6,0.1,0.8,0.1c0.2,0,0.4,0,0.5,0
			c0.1,0,0.3,0,0.4,0s0.2,0,0.3,0h1.9c0.1,0,0.3,0.1,0.5,0.2c0.2,0.1,0.4,0.3,0.6,0.5c0.2,0.2,0.4,0.4,0.5,0.7s0.2,0.5,0.2,0.7
			c0,0.1,0,0.2-0.1,0.5c-0.1,0.3-0.2,0.6-0.3,1.1c-0.1,0.4-0.3,0.9-0.4,1.5c-0.1,0.6-0.3,1.1-0.4,1.7s-0.2,1.2-0.3,1.9
			c-0.1,0.6-0.1,1.3-0.1,1.9c0,0.3,0,0.5,0.1,0.7c0.1,0.2,0.2,0.5,0.3,0.6s0.3,0.3,0.5,0.4s0.4,0.2,0.7,0.2c0.4,0,0.8-0.1,1.1-0.4
			s0.6-0.6,0.8-1c0.2-0.4,0.4-0.8,0.5-1.3c0.1-0.5,0.2-0.9,0.3-1.3c0.1-0.4,0.2-0.7,0.4-0.8c0.2-0.2,0.3-0.3,0.5-0.3
			c0.1,0,0.3,0,0.5,0.1c0.2,0.1,0.3,0.2,0.4,0.4s0.2,0.3,0.3,0.5c0.1,0.2,0.1,0.4,0.1,0.5c0,0.1,0,0.1,0,0.1c0,0,0,0.1,0,0.1
			c-0.2,0.6-0.4,1.3-0.7,1.9c-0.3,0.7-0.6,1.3-1,1.9s-0.9,1-1.5,1.4C147.4,69.4,146.7,69.6,145.9,69.6z"/>
		<path class="st12" d="M151.2,50.8c-0.3,0-0.6-0.1-0.9-0.2c-0.3-0.1-0.5-0.3-0.7-0.5c-0.2-0.2-0.4-0.4-0.5-0.7
			c-0.1-0.3-0.2-0.6-0.2-0.9c0-0.3,0.1-0.6,0.2-0.9c0.1-0.3,0.3-0.5,0.5-0.7c0.2-0.2,0.4-0.4,0.7-0.5c0.3-0.1,0.6-0.2,0.9-0.2
			c0.3,0,0.6,0.1,0.9,0.2s0.5,0.3,0.7,0.5c0.2,0.2,0.4,0.4,0.5,0.7c0.1,0.3,0.2,0.6,0.2,0.9c0,0.3-0.1,0.6-0.2,0.9
			c-0.1,0.3-0.3,0.5-0.5,0.7c-0.2,0.2-0.4,0.4-0.7,0.5S151.5,50.8,151.2,50.8z M152,65.5c0,0.1,0,0.2,0,0.4c0,0.2,0,0.4,0.1,0.6
			s0.2,0.4,0.3,0.5s0.3,0.2,0.6,0.2c0.4,0,0.7-0.1,1-0.4c0.3-0.3,0.5-0.6,0.7-1c0.2-0.4,0.4-0.8,0.5-1.3c0.1-0.5,0.2-0.9,0.3-1.3
			c0.1-0.4,0.2-0.6,0.3-0.8c0.2-0.2,0.3-0.3,0.5-0.3c0.2,0,0.4,0,0.5,0.1c0.2,0.1,0.3,0.3,0.5,0.4c0.1,0.2,0.2,0.4,0.3,0.6
			c0.1,0.2,0.1,0.4,0,0.6c-0.2,0.6-0.4,1.3-0.7,1.9c-0.3,0.7-0.6,1.3-1,1.9s-0.9,1-1.5,1.4s-1.3,0.6-2.1,0.6c-0.5,0-0.9-0.1-1.3-0.3
			s-0.7-0.4-1-0.8s-0.5-0.7-0.6-1.1c-0.1-0.4-0.2-0.9-0.2-1.3v-9.9c0-0.4,0-0.6-0.1-0.8c-0.1-0.2-0.1-0.3-0.1-0.4
			c0-0.2,0.1-0.3,0.3-0.4c0.2-0.1,0.4-0.2,0.7-0.2c0.6,0,1.1,0.2,1.5,0.5c0.4,0.3,0.5,0.7,0.5,1.2V65.5z"/>
		<path class="st12" d="M164.2,57.8c0,0.7-0.1,1.4-0.4,2.1c-0.2,0.7-0.6,1.4-1.1,2.1s-1,1.2-1.7,1.7s-1.5,0.9-2.4,1.2
			c0.1,0.3,0.3,0.6,0.5,0.9c0.2,0.3,0.4,0.5,0.7,0.7c0.3,0.2,0.6,0.4,1,0.5c0.4,0.1,0.8,0.2,1.3,0.2c0.7,0,1.3-0.1,1.9-0.4
			s1-0.6,1.3-1.1s0.6-0.9,0.9-1.5c0.2-0.6,0.4-1.1,0.5-1.7c0.1-0.4,0.3-0.7,0.5-0.8c0.3-0.1,0.5-0.2,0.8-0.1
			c0.3,0.1,0.5,0.2,0.7,0.5c0.2,0.2,0.3,0.5,0.2,0.8c0,0.4-0.1,0.8-0.2,1.3c-0.1,0.5-0.3,1-0.5,1.5c-0.2,0.5-0.5,1-0.9,1.5
			c-0.4,0.5-0.8,0.9-1.3,1.3c-0.5,0.4-1.1,0.7-1.8,0.9c-0.7,0.2-1.5,0.3-2.4,0.3c-0.8,0-1.7-0.2-2.5-0.5c-0.8-0.3-1.5-0.8-2.1-1.4
			s-1.1-1.4-1.5-2.3c-0.4-0.9-0.6-1.9-0.6-3.1c0-1.2,0.2-2.3,0.5-3.3c0.3-1,0.8-1.9,1.3-2.6c0.5-0.7,1.1-1.3,1.8-1.7
			s1.4-0.6,2.1-0.6c0.5,0,1,0.1,1.4,0.3c0.4,0.2,0.8,0.4,1.1,0.8c0.3,0.3,0.5,0.7,0.7,1.2C164.1,56.7,164.2,57.2,164.2,57.8z
			 M158.2,62.2c0,0.1,0,0.2,0,0.3c0,0.1,0,0.2,0,0.3c0.5-0.2,0.9-0.5,1.2-0.8c0.4-0.3,0.7-0.7,1-1.2c0.3-0.4,0.5-0.9,0.6-1.4
			c0.1-0.5,0.2-1,0.2-1.6c0-0.4-0.1-0.7-0.2-1c-0.1-0.2-0.3-0.3-0.6-0.3c-0.3,0-0.6,0.1-0.8,0.3c-0.2,0.2-0.4,0.5-0.6,0.8
			c-0.2,0.3-0.3,0.7-0.4,1.1c-0.1,0.4-0.2,0.8-0.3,1.3c-0.1,0.4-0.1,0.8-0.1,1.2C158.2,61.6,158.2,61.9,158.2,62.2z"/>
		<path class="st12" d="M168.8,63.5c-0.1,0.4-0.3,0.6-0.5,0.7s-0.5,0.1-0.8,0c-0.3-0.1-0.5-0.3-0.7-0.6c-0.2-0.3-0.2-0.6-0.2-0.9
			c0.2-0.8,0.4-1.7,0.8-2.7c0.3-1,0.7-2,1-3c-0.2-0.3-0.3-0.6-0.4-0.8c-0.1-0.3-0.2-0.6-0.2-0.9c0-0.3,0.1-0.6,0.4-1s0.5-0.7,0.9-1
			s0.7-0.5,1-0.7c0.4-0.2,0.7-0.3,0.9-0.3c0.4,0,0.8,0.2,1,0.5c0.2,0.3,0.3,0.7,0.3,1.2c0,0.3,0,0.6-0.1,0.8s-0.2,0.5-0.3,0.8
			c-0.1,0.2-0.2,0.4-0.3,0.6c-0.1,0.2-0.1,0.3-0.2,0.3c0.4,0.8,0.9,1.5,1.4,2c0.5,0.6,0.9,1.2,1.3,1.8c0.4,0.6,0.7,1.2,1,1.8
			c0.3,0.7,0.4,1.4,0.4,2.3c0,0.2,0,0.4,0,0.7s-0.1,0.4-0.1,0.7c0.4-0.1,0.8-0.2,1.2-0.4s0.6-0.4,0.9-0.6c0.2-0.2,0.5-0.5,0.6-0.8
			c0.2-0.3,0.3-0.6,0.4-0.9c0.1-0.4,0.3-0.6,0.4-0.8c0.1-0.2,0.3-0.2,0.5-0.2c0.2,0,0.3,0.1,0.5,0.2c0.2,0.1,0.3,0.2,0.4,0.4
			c0.1,0.2,0.2,0.3,0.3,0.5c0.1,0.2,0.1,0.3,0.1,0.5c0,0.2,0,0.4-0.1,0.7s-0.2,0.5-0.4,0.8c-0.2,0.3-0.3,0.5-0.6,0.8
			c-0.2,0.2-0.4,0.5-0.6,0.6c-0.6,0.5-1.3,0.9-2,1.2c-0.8,0.3-1.8,0.5-2.9,0.6c-0.4,0.4-1,0.7-1.6,1c-0.6,0.2-1.3,0.4-2.1,0.4
			c-0.4,0-0.8,0-1.2-0.1c-0.4-0.1-0.8-0.2-1.2-0.4c-0.4-0.2-0.7-0.3-1-0.5s-0.5-0.4-0.7-0.5c-0.5-0.4-0.8-0.9-0.9-1.3
			s-0.2-0.8-0.1-1.2c0.1-0.4,0.2-0.6,0.4-0.9c0.2-0.2,0.4-0.3,0.6-0.3c0.1,0,0.3,0.1,0.6,0.2s0.6,0.2,0.9,0.4
			c0.3,0.2,0.7,0.3,1.1,0.5s0.8,0.4,1.2,0.5c0.4,0.2,0.8,0.3,1.2,0.4c0.4,0.1,0.7,0.2,1,0.2c0.2-0.2,0.4-0.6,0.6-1
			c0.2-0.4,0.3-0.8,0.3-1.3c0-0.6-0.1-1.1-0.2-1.6c-0.2-0.5-0.4-1-0.6-1.4c-0.3-0.4-0.5-0.8-0.9-1.2s-0.6-0.7-1-1
			c-0.3,0.7-0.5,1.4-0.8,2.1S169,62.6,168.8,63.5z"/>
	</g>
	<g style="clip-path:url(#SVGID_00000076584877236233132550000011311637058366902195_);">
		<path class="st13" d="M43.3,35.9h-2.4L40.4,37h-1l2.2-5h1l2.2,5h-1L43.3,35.9z M43,35.1L42.1,33l-0.9,2.1H43z"/>
		<path class="st13" d="M48.5,32v4.1h2.2V37h-3.1v-5H48.5z"/>
		<path class="st13" d="M56.3,34.5c0,1.4-1.2,2.5-2.7,2.5c-1.5,0-2.7-1.1-2.7-2.5c0-1.4,1.2-2.5,2.7-2.5
			C55.2,31.9,56.3,33,56.3,34.5z M52,34.5c0,0.9,0.8,1.7,1.7,1.7c0.9,0,1.7-0.7,1.7-1.7c0-0.9-0.8-1.7-1.7-1.7
			C52.7,32.8,52,33.5,52,34.5z"/>
		<path class="st13" d="M57.5,32l1.5,3.9l1.5-3.9h1l-2,5h-1l-2-5H57.5z"/>
		<path class="st13" d="M65.8,32v0.8H63V34h2.4v0.8H63v1.3h2.8V37h-3.7v-5H65.8z"/>
		<path class="st13" d="M70.6,32.8c-0.5,0-0.7,0.2-0.7,0.5c0,1,2.7,0.5,2.7,2.3c0,0.9-0.8,1.5-1.9,1.5c-0.8,0-1.6-0.3-2.1-0.8
			l0.4-0.8c0.5,0.5,1.2,0.7,1.7,0.7s0.9-0.2,0.9-0.5c0-1-2.7-0.5-2.7-2.2c0-0.9,0.7-1.4,1.9-1.4c0.7,0,1.3,0.2,1.8,0.5l-0.4,0.8
			C71.6,33,71,32.8,70.6,32.8z"/>
		<path class="st13" d="M77,32v0.8h-1.6V37h-1v-4.1h-1.6V32H77z"/>
		<path class="st13" d="M82.3,34.5c0,1.4-1.2,2.5-2.7,2.5c-1.5,0-2.7-1.1-2.7-2.5c0-1.4,1.2-2.5,2.7-2.5
			C81.1,31.9,82.3,33,82.3,34.5z M77.9,34.5c0,0.9,0.8,1.7,1.7,1.7c0.9,0,1.7-0.7,1.7-1.7c0-0.9-0.8-1.7-1.7-1.7
			C78.7,32.8,77.9,33.5,77.9,34.5z"/>
		<path class="st13" d="M86.2,37l-0.9-1.5c-0.1,0-0.1,0-0.2,0h-1.1V37h-1v-5h2.1c1.3,0,2,0.6,2,1.7c0,0.8-0.4,1.3-1,1.6l1.1,1.7
			H86.2z M84.1,34.6h1.1c0.7,0,1.1-0.3,1.1-0.9c0-0.6-0.4-0.9-1.1-0.9h-1.1V34.6z"/>
		<path class="st13" d="M90.4,35.3V37h-1v-1.6L87.6,32h1l1.4,2.3l1.3-2.3h1L90.4,35.3z"/>
		<path class="st13" d="M98.9,33.2c0,0.5-0.3,1-0.9,1.1c0.7,0.1,1.1,0.6,1.1,1.3c0,0.9-0.7,1.4-1.8,1.4H95v-5h2.2
			C98.3,32,98.9,32.4,98.9,33.2z M98,33.4c0-0.4-0.3-0.6-0.8-0.6H96V34h1.2C97.7,34,98,33.8,98,33.4z M98.1,35.5
			c0-0.4-0.4-0.7-1-0.6H96v1.3h1.2C97.8,36.1,98.1,35.9,98.1,35.5z"/>
		<path class="st13" d="M102.3,35.3V37h-1v-1.6L99.4,32h1l1.4,2.3l1.3-2.3h1L102.3,35.3z"/>
		<path class="st13" d="M110.3,32v0.8h-1.6V37h-1v-4.1h-1.6V32H110.3z"/>
		<path class="st13" d="M115.7,34.5c0,1.4-1.2,2.5-2.7,2.5s-2.7-1.1-2.7-2.5c0-1.4,1.2-2.5,2.7-2.5S115.7,33,115.7,34.5z
			 M111.3,34.5c0,0.9,0.8,1.7,1.7,1.7c0.9,0,1.7-0.7,1.7-1.7c0-0.9-0.8-1.7-1.7-1.7C112.1,32.8,111.3,33.5,111.3,34.5z"/>
		<path class="st13" d="M117.6,32l1.6,3.2l1.6-3.2h1.1v5H121l0-3.6l-1.5,3.1h-0.6l-1.5-3.1V37h-0.9v-5H117.6z"/>
		<path class="st13" d="M125.7,32l1.1,3.9l1.1-3.9h0.9l1.1,3.9l1.1-3.9h1l-1.7,5h-1l-1.1-3.7l-1.1,3.7h-1l-1.7-5H125.7z"/>
		<path class="st13" d="M133.7,32v5h-1v-5H133.7z"/>
		<path class="st13" d="M135.8,32v4.1h2.2V37h-3.1v-5H135.8z"/>
		<path class="st13" d="M139.7,32v4.1h2.2V37h-3.1v-5H139.7z"/>
		<path class="st13" d="M143.6,32v5h-1v-5H143.6z"/>
		<path class="st13" d="M148.1,35.9h-2.4l-0.4,1.1h-1l2.2-5h1l2.2,5h-1L148.1,35.9z M147.7,35.1l-0.9-2.1l-0.9,2.1H147.7z"/>
		<path class="st13" d="M151.2,32l1.6,3.2l1.6-3.2h1.1v5h-0.9l0-3.6l-1.5,3.1h-0.6l-1.5-3.1V37h-0.9v-5H151.2z"/>
		<path class="st13" d="M158.3,32.8c-0.5,0-0.7,0.2-0.7,0.5c0,1,2.7,0.5,2.7,2.3c0,0.9-0.8,1.5-1.9,1.5c-0.8,0-1.6-0.3-2.1-0.8
			l0.4-0.8c0.5,0.5,1.2,0.7,1.7,0.7c0.5,0,0.9-0.2,0.9-0.5c0-1-2.7-0.5-2.7-2.2c0-0.9,0.8-1.4,1.9-1.4c0.7,0,1.3,0.2,1.8,0.5
			l-0.4,0.8C159.3,33,158.7,32.8,158.3,32.8z"/>
	</g>
</g>
</svg>
