<?xml version="1.0" encoding="utf-8"?>
<!-- Generator: Adobe Illustrator 26.2.1, SVG Export Plug-In . SVG Version: 6.00 Build 0)  -->
<svg version="1.1" id="book-top" xmlns="http://www.w3.org/2000/svg" xmlns:xlink="http://www.w3.org/1999/xlink" x="0px" y="0px"
	 viewBox="0 0 200 300" style="enable-background:new 0 0 200 300;" xml:space="preserve">
<style type="text/css">
	.st0{display:none;}
	.st1{display:inline;}
	.st2{display:inline;clip-path:url(#SVGID_00000037693684801452898100000005351147651099322266_);}
	.st3{fill:#F7C7DE;}
	.st4{clip-path:url(#SVGID_00000122711319534120390100000017003353559694079361_);}
	.st5{fill-rule:evenodd;clip-rule:evenodd;fill:#F4F0E4;}
	.st6{fill-rule:evenodd;clip-rule:evenodd;fill:#9AEDDE;}
	.st7{fill-rule:evenodd;clip-rule:evenodd;fill:#5D817C;}
	.st8{fill-rule:evenodd;clip-rule:evenodd;fill:#2B4753;}
	.st9{fill:#2B4753;}
</style>
<g class="st0">
	<defs>
		<path id="SVGID_1_" d="M10,0h180c5.5,0,10,4.5,10,10v280c0,5.5-4.5,10-10,10H10c-5.5,0-10-4.5-10-10V10C0,4.5,4.5,0,10,0z"/>
	</defs>
	<use xlink:href="#SVGID_1_"  style="display:inline;overflow:visible;fill:#F7C7DE;"/>
	<clipPath id="SVGID_00000169521017508779061140000003246915966467523730_" class="st1">
		<use xlink:href="#SVGID_1_"  style="overflow:visible;"/>
	</clipPath>
	<g id="Mask_Group_2" style="display:inline;clip-path:url(#SVGID_00000169521017508779061140000003246915966467523730_);">
		<path id="book-bg-2" class="st3" d="M10,0h180c5.5,0,10,4.5,10,10v280c0,5.5-4.5,10-10,10H10c-5.5,0-10-4.5-10-10V10
			C0,4.5,4.5,0,10,0z"/>
	</g>
</g>
<g>
	<defs>
		<path id="SVGID_00000154389523849072956960000006390877664779027845_" d="M10,0.1h180c5.5,0,10,4.5,10,10v280c0,5.5-4.5,10-10,10
			H10c-5.5,0-10-4.5-10-10v-280C0,4.5,4.5,0.1,10,0.1z"/>
	</defs>
	<clipPath id="SVGID_00000022526316570625444060000005085316831402512037_">
		<use xlink:href="#SVGID_00000154389523849072956960000006390877664779027845_"  style="overflow:visible;"/>
	</clipPath>
	<g style="clip-path:url(#SVGID_00000022526316570625444060000005085316831402512037_);">
		<rect x="-12.8" class="st5" width="225.5" height="300"/>
		<path class="st6" d="M100,142.8c41.4,0,80.1,12.3,112.8,33.6V300H-12.8V176.4C19.9,155.2,58.6,142.8,100,142.8L100,142.8z"/>
		<polygon class="st7" points="-12.8,230.9 12.2,230.9 12.2,213.2 22.9,213.2 22.9,200.1 22.9,191.3 31.4,191.3 31.4,170.6 
			34.7,170.6 34.7,191.3 43.2,191.3 43.2,200.1 43.2,213.2 53.9,213.2 53.9,274.6 75,274.6 75,230.9 109.9,230.9 109.9,259.3 
			133.5,259.3 133.5,217.5 173.1,217.5 173.1,248.5 212.8,248.5 212.8,300 173.1,300 166.9,300 133.5,300 127.2,300 116.7,300 
			109.9,300 84.9,300 75,300 53.9,300 43.2,300 28.9,300 12.2,300 -12.8,300 		"/>
		<rect x="-12.8" y="282.3" class="st8" width="225.5" height="17.7"/>
		<polygon class="st8" points="-12.8,300 17.8,300 17.8,234.7 -12.8,215.5 		"/>
		<polygon class="st8" points="212.8,300 192.9,300 192.9,257.5 212.8,245.1 		"/>
		<polygon class="st8" points="207.9,278.7 197.7,278.7 197.7,236.2 207.9,223.7 		"/>
		<rect x="142.2" y="267" class="st8" width="50.9" height="33"/>
		<rect x="148.3" y="254.4" class="st8" width="30.1" height="33"/>
		<rect x="13.9" y="254.4" class="st8" width="30.1" height="33"/>
		<rect x="32.1" y="267.2" class="st8" width="30.1" height="20.2"/>
		<g>
			<path d="M21,40.9c0-0.4-0.1-0.7-0.3-0.8c-0.2-0.2-0.5-0.4-1-0.6c-0.9-0.3-1.6-0.8-2-1.2c-0.4-0.5-0.6-1-0.6-1.7
				c0-0.8,0.3-1.4,0.8-1.9c0.5-0.5,1.2-0.7,2.1-0.7c0.6,0,1.1,0.1,1.5,0.4c0.4,0.2,0.8,0.6,1,1c0.2,0.4,0.4,0.9,0.4,1.5H21
				c0-0.4-0.1-0.8-0.3-1c-0.2-0.2-0.4-0.3-0.8-0.3c-0.3,0-0.6,0.1-0.8,0.3c-0.2,0.2-0.3,0.4-0.3,0.8c0,0.3,0.1,0.5,0.3,0.7
				c0.2,0.2,0.6,0.4,1.1,0.6c0.9,0.3,1.5,0.7,1.9,1.2c0.4,0.5,0.6,1.1,0.6,1.8c0,0.8-0.3,1.4-0.8,1.9c-0.5,0.4-1.2,0.7-2.1,0.7
				c-0.6,0-1.1-0.1-1.6-0.4c-0.5-0.2-0.9-0.6-1.1-1c-0.3-0.5-0.4-1-0.4-1.6h1.8c0,0.5,0.1,0.9,0.3,1.1c0.2,0.2,0.5,0.4,1,0.4
				C20.6,41.9,21,41.6,21,40.9z"/>
			<path d="M27.2,43.3c-0.1-0.1-0.1-0.3-0.2-0.5c-0.3,0.4-0.7,0.7-1.3,0.7c-0.6,0-1-0.2-1.4-0.6c-0.4-0.4-0.6-0.9-0.6-1.5
				c0-0.7,0.2-1.3,0.7-1.6c0.5-0.4,1.1-0.6,2-0.6h0.5v-0.5c0-0.3-0.1-0.5-0.2-0.6c-0.1-0.1-0.3-0.2-0.5-0.2c-0.4,0-0.7,0.3-0.7,0.8
				h-1.8c0-0.6,0.2-1.1,0.7-1.5s1.1-0.6,1.8-0.6c0.7,0,1.3,0.2,1.7,0.6c0.4,0.4,0.6,0.9,0.6,1.7v3.2c0,0.6,0.1,1,0.3,1.4v0.1H27.2z
				 M26.1,42c0.2,0,0.4,0,0.5-0.1c0.1-0.1,0.2-0.2,0.3-0.3v-1.4h-0.4c-0.3,0-0.5,0.1-0.7,0.3c-0.2,0.2-0.3,0.4-0.3,0.8
				C25.5,41.8,25.7,42,26.1,42z"/>
			<path d="M29.8,39.7c0-1.1,0.2-1.9,0.6-2.5c0.4-0.5,1-0.8,1.7-0.8c0.6,0,1.1,0.2,1.4,0.7l0.1-0.6h1.6v6.8c0,0.9-0.2,1.5-0.7,2
				c-0.5,0.5-1.2,0.7-2.1,0.7c-0.4,0-0.8-0.1-1.2-0.2c-0.4-0.1-0.7-0.3-0.9-0.6l0.6-1.2c0.2,0.2,0.4,0.3,0.7,0.4
				c0.3,0.1,0.5,0.2,0.8,0.2c0.4,0,0.7-0.1,0.9-0.3c0.2-0.2,0.3-0.5,0.3-0.9v-0.6c-0.3,0.4-0.8,0.7-1.3,0.7c-0.7,0-1.3-0.3-1.7-0.8
				c-0.4-0.6-0.6-1.4-0.6-2.4V39.7z M31.5,40.1c0,0.6,0.1,1.1,0.2,1.4c0.2,0.3,0.4,0.4,0.8,0.4c0.4,0,0.6-0.1,0.8-0.4v-3.2
				c-0.2-0.3-0.4-0.4-0.8-0.4c-0.4,0-0.6,0.1-0.8,0.4c-0.2,0.3-0.3,0.8-0.3,1.4V40.1z"/>
			<path d="M39.2,43.4c-0.9,0-1.6-0.3-2.1-0.8c-0.5-0.5-0.8-1.3-0.8-2.3v-0.5c0-1.1,0.2-1.9,0.7-2.5c0.5-0.6,1.1-0.9,2-0.9
				c0.9,0,1.5,0.3,1.9,0.8c0.4,0.5,0.6,1.3,0.7,2.4v0.9H38c0,0.5,0.1,0.9,0.3,1.1c0.2,0.2,0.5,0.3,0.9,0.3c0.6,0,1.1-0.2,1.5-0.6
				l0.7,1.1c-0.2,0.3-0.5,0.5-0.9,0.7S39.6,43.4,39.2,43.4z M38,39.2h1.8v-0.2c0-0.4-0.1-0.7-0.2-0.9c-0.1-0.2-0.3-0.3-0.7-0.3
				c-0.3,0-0.5,0.1-0.7,0.3C38.2,38.4,38.1,38.8,38,39.2z"/>
			<path d="M44.2,36.5l0.1,0.7c0.4-0.5,0.9-0.8,1.6-0.8c1.2,0,1.8,0.8,1.8,2.4v4.5h-1.8V39c0-0.4-0.1-0.7-0.2-0.8
				c-0.1-0.2-0.3-0.3-0.6-0.3c-0.3,0-0.6,0.2-0.8,0.5v4.9h-1.8v-6.8H44.2z"/>
			<path d="M51.6,39.7c0-1.1,0.2-1.9,0.6-2.5c0.4-0.5,0.9-0.8,1.6-0.8c0.5,0,1,0.2,1.3,0.7v-3.4h1.8v9.6h-1.6l-0.1-0.7
				c-0.4,0.5-0.8,0.8-1.4,0.8c-0.7,0-1.3-0.3-1.6-0.8c-0.4-0.5-0.6-1.3-0.6-2.4V39.7z M53.4,40.1c0,0.7,0.1,1.1,0.2,1.4
				c0.1,0.3,0.4,0.4,0.7,0.4c0.4,0,0.6-0.2,0.8-0.5v-3.1c-0.2-0.3-0.4-0.5-0.8-0.5c-0.3,0-0.6,0.1-0.7,0.4c-0.2,0.3-0.2,0.7-0.2,1.4
				V40.1z"/>
			<path d="M60.9,43.4c-0.9,0-1.6-0.3-2.1-0.8C58.3,42,58,41.3,58,40.3v-0.5c0-1.1,0.2-1.9,0.7-2.5c0.5-0.6,1.1-0.9,2-0.9
				c0.9,0,1.5,0.3,1.9,0.8c0.4,0.5,0.6,1.3,0.7,2.4v0.9h-3.5c0,0.5,0.1,0.9,0.3,1.1c0.2,0.2,0.5,0.3,0.9,0.3c0.6,0,1.1-0.2,1.5-0.6
				l0.7,1.1c-0.2,0.3-0.5,0.5-0.9,0.7S61.4,43.4,60.9,43.4z M59.8,39.2h1.8v-0.2c0-0.4-0.1-0.7-0.2-0.9c-0.1-0.2-0.3-0.3-0.7-0.3
				c-0.3,0-0.5,0.1-0.7,0.3C59.9,38.4,59.8,38.8,59.8,39.2z"/>
			<path d="M67.3,41.5c0-0.2-0.1-0.3-0.2-0.4c-0.1-0.1-0.5-0.3-1-0.5c-0.7-0.3-1.2-0.6-1.5-0.9c-0.3-0.3-0.4-0.7-0.4-1.2
				c0-0.6,0.2-1.1,0.6-1.5c0.4-0.4,1-0.6,1.7-0.6c0.7,0,1.3,0.2,1.8,0.6c0.4,0.4,0.7,0.9,0.7,1.5h-1.8c0-0.6-0.2-0.8-0.7-0.8
				c-0.2,0-0.3,0.1-0.5,0.2c-0.1,0.1-0.2,0.3-0.2,0.5c0,0.2,0.1,0.3,0.2,0.4c0.1,0.1,0.4,0.3,0.9,0.5c0.7,0.3,1.2,0.6,1.5,0.9
				c0.3,0.3,0.4,0.8,0.4,1.3c0,0.6-0.2,1.1-0.7,1.5c-0.5,0.4-1.1,0.6-1.8,0.6c-0.5,0-0.9-0.1-1.3-0.3c-0.4-0.2-0.7-0.5-0.9-0.8
				C64.1,42,64,41.6,64,41.2h1.7c0,0.3,0.1,0.5,0.2,0.7c0.1,0.2,0.4,0.2,0.7,0.2C67.1,42.1,67.3,41.9,67.3,41.5z"/>
			<path d="M75.4,40.7l-0.5,0.5v2.1h-1.8v-9.6h1.8v5.2l0.2-0.3l1.2-2h2.1l-2,2.8l2.2,4h-2L75.4,40.7z"/>
			<path d="M81.1,43.3h-1.8v-9.6h1.8V43.3z"/>
			<path d="M85.7,43.3c-0.1-0.1-0.1-0.3-0.2-0.5c-0.3,0.4-0.7,0.7-1.3,0.7c-0.6,0-1-0.2-1.4-0.6c-0.4-0.4-0.6-0.9-0.6-1.5
				c0-0.7,0.2-1.3,0.7-1.6c0.5-0.4,1.1-0.6,2-0.6h0.5v-0.5c0-0.3-0.1-0.5-0.2-0.6c-0.1-0.1-0.3-0.2-0.5-0.2c-0.4,0-0.7,0.3-0.7,0.8
				h-1.8c0-0.6,0.2-1.1,0.7-1.5c0.5-0.4,1.1-0.6,1.8-0.6c0.7,0,1.3,0.2,1.7,0.6c0.4,0.4,0.6,0.9,0.6,1.7v3.2c0,0.6,0.1,1,0.3,1.4
				v0.1H85.7z M84.6,42c0.2,0,0.4,0,0.5-0.1c0.1-0.1,0.2-0.2,0.3-0.3v-1.4H85c-0.3,0-0.5,0.1-0.7,0.3c-0.2,0.2-0.3,0.4-0.3,0.8
				C84.1,41.8,84.3,42,84.6,42z"/>
			<path d="M91.5,41.5c0-0.2-0.1-0.3-0.2-0.4c-0.1-0.1-0.5-0.3-1-0.5c-0.7-0.3-1.2-0.6-1.5-0.9c-0.3-0.3-0.4-0.7-0.4-1.2
				c0-0.6,0.2-1.1,0.6-1.5c0.4-0.4,1-0.6,1.7-0.6c0.7,0,1.3,0.2,1.8,0.6c0.4,0.4,0.7,0.9,0.7,1.5h-1.8c0-0.6-0.2-0.8-0.7-0.8
				c-0.2,0-0.3,0.1-0.5,0.2c-0.1,0.1-0.2,0.3-0.2,0.5c0,0.2,0.1,0.3,0.2,0.4c0.1,0.1,0.4,0.3,0.9,0.5c0.7,0.3,1.2,0.6,1.5,0.9
				c0.3,0.3,0.4,0.8,0.4,1.3c0,0.6-0.2,1.1-0.7,1.5c-0.5,0.4-1.1,0.6-1.8,0.6c-0.5,0-0.9-0.1-1.3-0.3c-0.4-0.2-0.7-0.5-0.9-0.8
				c-0.2-0.3-0.3-0.7-0.3-1.1h1.7c0,0.3,0.1,0.5,0.2,0.7c0.1,0.2,0.4,0.2,0.7,0.2C91.3,42.1,91.5,41.9,91.5,41.5z"/>
			<path d="M97.3,41.5c0-0.2-0.1-0.3-0.2-0.4c-0.1-0.1-0.5-0.3-1-0.5c-0.7-0.3-1.2-0.6-1.5-0.9c-0.3-0.3-0.4-0.7-0.4-1.2
				c0-0.6,0.2-1.1,0.6-1.5c0.4-0.4,1-0.6,1.7-0.6c0.7,0,1.3,0.2,1.8,0.6c0.4,0.4,0.7,0.9,0.7,1.5h-1.8c0-0.6-0.2-0.8-0.7-0.8
				c-0.2,0-0.3,0.1-0.5,0.2c-0.1,0.1-0.2,0.3-0.2,0.5c0,0.2,0.1,0.3,0.2,0.4c0.1,0.1,0.4,0.3,0.9,0.5c0.7,0.3,1.2,0.6,1.5,0.9
				c0.3,0.3,0.4,0.8,0.4,1.3c0,0.6-0.2,1.1-0.7,1.5c-0.5,0.4-1.1,0.6-1.8,0.6c-0.5,0-0.9-0.1-1.3-0.3c-0.4-0.2-0.7-0.5-0.9-0.8
				C94.2,42,94,41.6,94,41.2h1.7c0,0.3,0.1,0.5,0.2,0.7c0.1,0.2,0.4,0.2,0.7,0.2C97.1,42.1,97.3,41.9,97.3,41.5z"/>
			<path d="M100.2,34.7c0-0.3,0.1-0.5,0.3-0.7s0.4-0.3,0.7-0.3c0.3,0,0.5,0.1,0.7,0.3s0.3,0.4,0.3,0.7c0,0.3-0.1,0.5-0.3,0.7
				c-0.2,0.2-0.4,0.3-0.7,0.3c-0.3,0-0.5-0.1-0.7-0.3C100.2,35.2,100.2,35,100.2,34.7z M102,43.3h-1.8v-6.8h1.8V43.3z"/>
			<path d="M106.4,41.5c0-0.2-0.1-0.3-0.2-0.4c-0.1-0.1-0.5-0.3-1-0.5c-0.7-0.3-1.2-0.6-1.5-0.9c-0.3-0.3-0.4-0.7-0.4-1.2
				c0-0.6,0.2-1.1,0.6-1.5c0.4-0.4,1-0.6,1.7-0.6c0.7,0,1.3,0.2,1.8,0.6c0.4,0.4,0.7,0.9,0.7,1.5h-1.8c0-0.6-0.2-0.8-0.7-0.8
				c-0.2,0-0.3,0.1-0.5,0.2c-0.1,0.1-0.2,0.3-0.2,0.5c0,0.2,0.1,0.3,0.2,0.4c0.1,0.1,0.4,0.3,0.9,0.5c0.7,0.3,1.2,0.6,1.5,0.9
				c0.3,0.3,0.4,0.8,0.4,1.3c0,0.6-0.2,1.1-0.7,1.5c-0.5,0.4-1.1,0.6-1.8,0.6c-0.5,0-0.9-0.1-1.3-0.3c-0.4-0.2-0.7-0.5-0.9-0.8
				c-0.2-0.3-0.3-0.7-0.3-1.1h1.7c0,0.3,0.1,0.5,0.2,0.7c0.1,0.2,0.4,0.2,0.7,0.2C106.1,42.1,106.4,41.9,106.4,41.5z"/>
			<path d="M111.7,41.9c0.5,0,0.8-0.3,0.8-1h1.7c0,0.7-0.2,1.3-0.7,1.8c-0.4,0.5-1,0.7-1.7,0.7c-0.9,0-1.5-0.3-2-0.8
				c-0.5-0.5-0.7-1.3-0.7-2.4v-0.5c0-1.1,0.2-1.9,0.7-2.4c0.5-0.6,1.1-0.8,2-0.8c0.7,0,1.3,0.2,1.8,0.7c0.4,0.5,0.6,1.1,0.7,2h-1.7
				c0-0.4-0.1-0.7-0.2-0.9c-0.1-0.2-0.3-0.3-0.6-0.3c-0.3,0-0.5,0.1-0.7,0.3c-0.1,0.2-0.2,0.6-0.2,1.3v0.7c0,0.6,0,0.9,0.1,1.2
				c0.1,0.2,0.1,0.4,0.3,0.5C111.3,41.9,111.4,41.9,111.7,41.9z"/>
			<path d="M116.8,37.1c0.4-0.5,0.9-0.7,1.4-0.7c0.6,0,1.1,0.2,1.4,0.7c0.3,0.4,0.5,1.1,0.5,1.9v4.3h-1.8V39c0-0.4-0.1-0.7-0.2-0.9
				c-0.1-0.2-0.3-0.3-0.6-0.3c-0.3,0-0.6,0.1-0.8,0.4v5h-1.8v-9.6h1.8V37.1z"/>
			<path d="M124.2,43.4c-0.9,0-1.6-0.3-2.1-0.8c-0.5-0.5-0.8-1.3-0.8-2.3v-0.5c0-1.1,0.2-1.9,0.7-2.5c0.5-0.6,1.1-0.9,2-0.9
				c0.9,0,1.5,0.3,1.9,0.8c0.4,0.5,0.6,1.3,0.7,2.4v0.9H123c0,0.5,0.1,0.9,0.3,1.1c0.2,0.2,0.5,0.3,0.9,0.3c0.6,0,1.1-0.2,1.5-0.6
				l0.7,1.1c-0.2,0.3-0.5,0.5-0.9,0.7S124.6,43.4,124.2,43.4z M123,39.2h1.8v-0.2c0-0.4-0.1-0.7-0.2-0.9c-0.1-0.2-0.3-0.3-0.7-0.3
				c-0.3,0-0.5,0.1-0.7,0.3C123.1,38.4,123.1,38.8,123,39.2z"/>
			<path d="M129.2,36.5l0.1,0.7c0.4-0.5,0.9-0.8,1.6-0.8c1.2,0,1.8,0.8,1.8,2.4v4.5h-1.8V39c0-0.4-0.1-0.7-0.2-0.8
				c-0.1-0.2-0.3-0.3-0.6-0.3c-0.3,0-0.6,0.2-0.8,0.5v4.9h-1.8v-6.8H129.2z"/>
			<path d="M141.3,41.4h-2.5l-0.5,1.9h-1.9l2.8-9.1h1.7l2.9,9.1h-2L141.3,41.4z M139.2,39.9h1.7l-0.9-3.2L139.2,39.9z"/>
			<path d="M146.3,43.3h-1.8v-9.6h1.8V43.3z"/>
			<path d="M149.8,34.8v1.7h0.9v1.3h-0.9v3.4c0,0.3,0,0.5,0.1,0.6c0.1,0.1,0.2,0.2,0.4,0.2c0.2,0,0.3,0,0.4,0l0,1.4
				c-0.3,0.1-0.6,0.2-1,0.2c-1.1,0-1.7-0.7-1.7-2v-3.6h-0.8v-1.3h0.8v-1.7H149.8z"/>
			<path d="M154.4,43.4c-0.9,0-1.6-0.3-2.1-0.8c-0.5-0.5-0.8-1.3-0.8-2.3v-0.5c0-1.1,0.2-1.9,0.7-2.5c0.5-0.6,1.1-0.9,2-0.9
				c0.9,0,1.5,0.3,1.9,0.8c0.4,0.5,0.6,1.3,0.7,2.4v0.9h-3.5c0,0.5,0.1,0.9,0.3,1.1c0.2,0.2,0.5,0.3,0.9,0.3c0.6,0,1.1-0.2,1.5-0.6
				l0.7,1.1c-0.2,0.3-0.5,0.5-0.9,0.7S154.9,43.4,154.4,43.4z M153.3,39.2h1.8v-0.2c0-0.4-0.1-0.7-0.2-0.9c-0.1-0.2-0.3-0.3-0.7-0.3
				c-0.3,0-0.5,0.1-0.7,0.3C153.4,38.4,153.3,38.8,153.3,39.2z"/>
			<path d="M161.1,38.2l-0.6-0.1c-0.5,0-0.8,0.2-1,0.6v4.5h-1.8v-6.8h1.7l0.1,0.7c0.3-0.6,0.7-0.9,1.2-0.9c0.2,0,0.4,0,0.5,0.1
				L161.1,38.2z"/>
			<path d="M164.4,34.8v1.7h0.9v1.3h-0.9v3.4c0,0.3,0,0.5,0.1,0.6s0.2,0.2,0.4,0.2c0.2,0,0.3,0,0.4,0l0,1.4c-0.3,0.1-0.6,0.2-1,0.2
				c-1.1,0-1.7-0.7-1.7-2v-3.6h-0.8v-1.3h0.8v-1.7H164.4z"/>
			<path d="M169.6,42.7c-0.4,0.5-0.9,0.7-1.5,0.7c-0.6,0-1.1-0.2-1.4-0.6c-0.3-0.4-0.5-1.1-0.5-1.9v-4.4h1.8v4.4c0,0.7,0.2,1,0.7,1
				c0.4,0,0.7-0.2,0.9-0.5v-4.9h1.8v6.8h-1.7L169.6,42.7z"/>
			<path d="M174.3,36.5l0.1,0.6c0.4-0.5,0.9-0.8,1.6-0.8c0.7,0,1.2,0.3,1.4,0.9c0.4-0.6,0.9-0.9,1.7-0.9c1.2,0,1.8,0.8,1.8,2.5v4.4
				H179v-4.3c0-0.4-0.1-0.7-0.2-0.8c-0.1-0.2-0.3-0.3-0.6-0.3c-0.3,0-0.6,0.2-0.7,0.6l0,0.2v4.6h-1.8V39c0-0.4-0.1-0.7-0.2-0.8
				c-0.1-0.2-0.3-0.3-0.6-0.3c-0.3,0-0.5,0.2-0.7,0.5v4.9h-1.8v-6.8H174.3z"/>
			<path d="M185.1,41.5c0-0.2-0.1-0.3-0.2-0.4c-0.1-0.1-0.5-0.3-1-0.5c-0.7-0.3-1.2-0.6-1.5-0.9c-0.3-0.3-0.4-0.7-0.4-1.2
				c0-0.6,0.2-1.1,0.6-1.5c0.4-0.4,1-0.6,1.7-0.6c0.7,0,1.3,0.2,1.8,0.6c0.4,0.4,0.7,0.9,0.7,1.5H185c0-0.6-0.2-0.8-0.7-0.8
				c-0.2,0-0.3,0.1-0.5,0.2c-0.1,0.1-0.2,0.3-0.2,0.5c0,0.2,0.1,0.3,0.2,0.4c0.1,0.1,0.4,0.3,0.9,0.5c0.7,0.3,1.2,0.6,1.5,0.9
				c0.3,0.3,0.4,0.8,0.4,1.3c0,0.6-0.2,1.1-0.7,1.5c-0.5,0.4-1.1,0.6-1.8,0.6c-0.5,0-0.9-0.1-1.3-0.3c-0.4-0.2-0.7-0.5-0.9-0.8
				c-0.2-0.3-0.3-0.7-0.3-1.1h1.7c0,0.3,0.1,0.5,0.2,0.7c0.1,0.2,0.4,0.2,0.7,0.2C184.9,42.1,185.1,41.9,185.1,41.5z"/>
		</g>
		<g>
			<path d="M68.8,55.7l2.1,6l2.1-6h0.7v6.8h-0.5v-3l0-3l-2.1,5.9h-0.4l-2.1-5.9l0,2.9v3h-0.5v-6.8H68.8z"/>
			<path d="M75.2,56c0-0.1,0-0.2,0.1-0.3s0.1-0.1,0.3-0.1c0.1,0,0.2,0,0.3,0.1c0.1,0.1,0.1,0.2,0.1,0.3s0,0.2-0.1,0.3
				c-0.1,0.1-0.1,0.1-0.3,0.1c-0.1,0-0.2,0-0.3-0.1S75.2,56.1,75.2,56z M75.8,62.5h-0.5v-5.1h0.5V62.5z"/>
			<path d="M78.8,62.1c0.4,0,0.6-0.1,0.8-0.3c0.2-0.2,0.3-0.5,0.3-0.9h0.5c0,0.5-0.2,0.9-0.5,1.2c-0.3,0.3-0.7,0.4-1.2,0.4
				c-0.6,0-1.1-0.2-1.4-0.6c-0.3-0.4-0.5-1-0.5-1.7v-0.6c0-0.8,0.2-1.4,0.5-1.8c0.3-0.4,0.8-0.6,1.4-0.6c0.5,0,0.9,0.2,1.2,0.5
				c0.3,0.3,0.4,0.8,0.5,1.3H80c0-0.4-0.1-0.7-0.3-1c-0.2-0.2-0.5-0.3-0.8-0.3c-0.5,0-0.8,0.2-1,0.5c-0.2,0.3-0.3,0.8-0.3,1.4v0.6
				c0,0.7,0.1,1.1,0.3,1.4C78.1,62,78.4,62.1,78.8,62.1z"/>
			<path d="M82.1,58.2c0.2-0.3,0.3-0.5,0.6-0.7c0.2-0.2,0.5-0.2,0.8-0.2c0.9,0,1.3,0.6,1.4,1.8v3.4h-0.5v-3.3c0-0.5-0.1-0.8-0.2-1
				s-0.4-0.3-0.7-0.3c-0.3,0-0.5,0.1-0.7,0.3c-0.2,0.2-0.4,0.5-0.5,0.8v3.5h-0.5v-7.2h0.5V58.2z"/>
			<path d="M88.9,62.5c0-0.2-0.1-0.4-0.1-0.7c-0.2,0.3-0.4,0.5-0.6,0.6c-0.2,0.1-0.5,0.2-0.8,0.2c-0.4,0-0.8-0.1-1-0.4
				S86,61.6,86,61.2c0-0.5,0.2-0.9,0.5-1.2c0.3-0.3,0.8-0.4,1.4-0.4h0.9v-0.7c0-0.4-0.1-0.6-0.3-0.8c-0.2-0.2-0.4-0.2-0.8-0.2
				c-0.3,0-0.6,0.1-0.8,0.3c-0.2,0.2-0.3,0.4-0.3,0.7l-0.5,0c0-0.4,0.2-0.8,0.5-1.1c0.3-0.3,0.7-0.4,1.2-0.4c0.5,0,0.9,0.1,1.2,0.4
				c0.3,0.3,0.4,0.6,0.4,1.1v2.5c0,0.5,0,0.9,0.1,1.1v0.1H88.9z M87.5,62.1c0.3,0,0.6-0.1,0.8-0.2c0.2-0.2,0.4-0.4,0.5-0.6V60H88
				c-0.5,0-0.8,0.1-1.1,0.3c-0.2,0.2-0.4,0.5-0.4,0.8C86.5,61.8,86.9,62.1,87.5,62.1z"/>
			<path d="M92.4,62.6c-0.6,0-1.1-0.2-1.4-0.6c-0.3-0.4-0.5-0.9-0.5-1.7v-0.6c0-0.7,0.2-1.3,0.5-1.8c0.3-0.4,0.8-0.6,1.3-0.6
				c0.6,0,1,0.2,1.3,0.5c0.3,0.4,0.4,0.9,0.4,1.7V60h-3v0.3c0,0.6,0.1,1,0.4,1.3c0.2,0.3,0.6,0.5,1.1,0.5c0.5,0,0.9-0.2,1.2-0.5
				l0.3,0.3C93.6,62.4,93.1,62.6,92.4,62.6z M92.3,57.8c-0.4,0-0.7,0.1-0.9,0.4C91.2,58.5,91,59,91,59.5h2.5v-0.1
				C93.5,58.3,93.1,57.8,92.3,57.8z"/>
			<path d="M95.7,62.5h-0.5v-7.2h0.5V62.5z"/>
			<path d="M100.8,59.1l-0.8,0.9v2.5h-0.5v-6.8h0.5v3.6l0.8-0.9l2.1-2.7h0.7l-2.4,3l2.6,3.8H103L100.8,59.1z"/>
			<path d="M104.4,59.7c0-0.7,0.2-1.3,0.5-1.7c0.3-0.4,0.8-0.6,1.4-0.6c0.6,0,1,0.2,1.4,0.6c0.3,0.4,0.5,1,0.5,1.7v0.5
				c0,0.7-0.2,1.3-0.5,1.7c-0.3,0.4-0.8,0.6-1.4,0.6s-1-0.2-1.3-0.6c-0.3-0.4-0.5-1-0.5-1.7V59.7z M104.9,56c0-0.1,0-0.2,0.1-0.3
				c0.1-0.1,0.2-0.1,0.3-0.1c0.1,0,0.2,0,0.3,0.1c0.1,0.1,0.1,0.2,0.1,0.3c0,0.1,0,0.2-0.1,0.3c-0.1,0.1-0.2,0.1-0.3,0.1
				c-0.1,0-0.2,0-0.3-0.1C104.9,56.2,104.9,56.1,104.9,56z M104.9,60.2c0,0.6,0.1,1,0.4,1.4c0.2,0.3,0.6,0.5,1,0.5
				c0.4,0,0.8-0.2,1-0.5c0.2-0.3,0.3-0.8,0.3-1.4v-0.5c0-0.6-0.1-1-0.4-1.4c-0.2-0.3-0.6-0.5-1-0.5c-0.4,0-0.7,0.2-1,0.5
				c-0.2,0.3-0.4,0.8-0.4,1.4V60.2z M106.9,56c0-0.1,0-0.2,0.1-0.3c0.1-0.1,0.2-0.1,0.3-0.1c0.1,0,0.2,0,0.3,0.1
				c0.1,0.1,0.1,0.2,0.1,0.3c0,0.1,0,0.2-0.1,0.3c-0.1,0.1-0.2,0.1-0.3,0.1c-0.1,0-0.2,0-0.3-0.1C106.9,56.2,106.9,56.1,106.9,56z"
				/>
			<path d="M109.8,58.2c0.2-0.3,0.3-0.5,0.6-0.7c0.2-0.2,0.5-0.2,0.8-0.2c0.9,0,1.3,0.6,1.4,1.8v3.4h-0.5v-3.3c0-0.5-0.1-0.8-0.2-1
				s-0.4-0.3-0.7-0.3c-0.3,0-0.5,0.1-0.7,0.3c-0.2,0.2-0.4,0.5-0.5,0.8v3.5h-0.5v-7.2h0.5V58.2z"/>
			<path d="M114.5,62.5H114v-7.2h0.5V62.5z"/>
			<path d="M116.5,57.4l0,0.8c0.3-0.6,0.8-0.9,1.4-0.9c0.7,0,1.1,0.3,1.3,0.9c0.2-0.3,0.4-0.5,0.6-0.7c0.3-0.2,0.5-0.2,0.8-0.2
				c0.9,0,1.4,0.6,1.4,1.8v3.4h-0.5v-3.4c0-0.4-0.1-0.8-0.2-1c-0.2-0.2-0.4-0.3-0.8-0.3c-0.3,0-0.6,0.1-0.8,0.4
				c-0.2,0.2-0.3,0.6-0.4,0.9v3.4h-0.5v-3.4c0-0.4-0.1-0.8-0.2-1c-0.2-0.2-0.4-0.3-0.8-0.3c-0.3,0-0.5,0.1-0.7,0.3
				c-0.2,0.2-0.4,0.5-0.5,0.8v3.5H116v-5.1H116.5z"/>
			<path d="M125,62.6c-0.6,0-1.1-0.2-1.4-0.6c-0.3-0.4-0.5-0.9-0.5-1.7v-0.6c0-0.7,0.2-1.3,0.5-1.8c0.3-0.4,0.8-0.6,1.3-0.6
				c0.6,0,1,0.2,1.3,0.5c0.3,0.4,0.4,0.9,0.4,1.7V60h-3v0.3c0,0.6,0.1,1,0.4,1.3c0.2,0.3,0.6,0.5,1.1,0.5c0.5,0,0.9-0.2,1.2-0.5
				l0.3,0.3C126.2,62.4,125.7,62.6,125,62.6z M124.9,57.8c-0.4,0-0.7,0.1-0.9,0.4c-0.2,0.3-0.3,0.7-0.4,1.3h2.5v-0.1
				C126.1,58.3,125.7,57.8,124.9,57.8z"/>
			<path d="M127.7,56c0-0.1,0-0.2,0.1-0.3s0.1-0.1,0.3-0.1c0.1,0,0.2,0,0.3,0.1c0.1,0.1,0.1,0.2,0.1,0.3s0,0.2-0.1,0.3
				c-0.1,0.1-0.1,0.1-0.3,0.1c-0.1,0-0.2,0-0.3-0.1S127.7,56.1,127.7,56z M128.3,62.5h-0.5v-5.1h0.5V62.5z"/>
			<path d="M131.4,62.6c-0.6,0-1.1-0.2-1.4-0.6c-0.3-0.4-0.5-0.9-0.5-1.7v-0.6c0-0.7,0.2-1.3,0.5-1.8c0.3-0.4,0.8-0.6,1.3-0.6
				c0.6,0,1,0.2,1.3,0.5c0.3,0.4,0.4,0.9,0.4,1.7V60h-3v0.3c0,0.6,0.1,1,0.4,1.3c0.2,0.3,0.6,0.5,1.1,0.5c0.5,0,0.9-0.2,1.2-0.5
				l0.3,0.3C132.6,62.4,132.1,62.6,131.4,62.6z M131.3,57.8c-0.4,0-0.7,0.1-0.9,0.4c-0.2,0.3-0.3,0.7-0.4,1.3h2.5v-0.1
				C132.5,58.3,132.1,57.8,131.3,57.8z"/>
			<path d="M136.1,57.9c-0.1,0-0.2,0-0.3,0c-0.3,0-0.5,0.1-0.7,0.3c-0.2,0.2-0.3,0.5-0.4,0.8v3.5h-0.5v-5.1h0.5l0,0.8
				c0.2-0.6,0.6-0.9,1.2-0.9c0.1,0,0.2,0,0.3,0.1L136.1,57.9z"/>
		</g>
		<path class="st9" d="M196.2,216.5c-3.3-8.7-3.4-14.9-2.6-18.5c0.9-3.6,2.7-4.7,2.7-4.7s-0.1-1.6-1.7-1.6c-1.6,0-6.1,0.5-6.1,0.5
			s3.6-6.9,4.2-17.8c0.6-10.9-0.3-17.3-0.3-18.8c0-1.4-0.6-2.9-2.3-4.3c-1.7-1.4-3.4-4.3-2.6-4.7c0.9-0.4,2,0.3,2.3-0.6
			c0.1-0.3,0.1-0.9,0-1.3c0-0.7-0.1-1.2-0.1-1.2c0.2-0.2,0.8-0.1,0.9-0.5c-0.5-0.8-1.3-1.5-1.3-1.5s0.1-1.1-0.3-2
			c-0.4-0.9-2.1-2.3-4-1.9c-1.9,0.4-3.5,0.3-3.6,3c-0.1,1.7,1,1.7,0.9,2.5c-0.2,0.9-0.1,2-0.6,2.6c-0.6,0.7-3.9-3-6.2-3.9
			c-2.3-0.9-4.1-0.9-4.1-0.9l-2.7,2.3c0,0-9-2.7-13.9-2.9c-4.9-0.2-6.2,0.6-5.3,2.6c0.9,2,2.6,4,1.6,4.9c-1,0.8-2,2-1,2.7
			c1,0.8,2.3,1.2,2.3,1.2s-4.4,5.7,4.3,5.1c8.7-0.6,10.9-3,10.9-3s2.3,0.3,3,0.9c0.7,0.6,2,1.6,2.4,1.7c0.4,0.2,1.3,1.7,4.6,1.9
			c3.3,0.2,4.2-0.3,4.7,0.7c0.6,1,3,3.3,2.7,5c-0.3,1.7-3.4,2.8-4.6,5c-2.9,5.1-1.4,11.4-8.7,19.1c-1.7,1.8-4.1,4.6-6,7.2
			c-1.9,2.6-2.6,5.3-2.6,5.3s2.6,2.4,6.3,4.5c3.7,2,5.9,4,5.9,4l-0.3,2.4c0,0,6.7,1.9,5,4.7c-1.7,2.9-6.9,2.9-6.9,2.9l0.2,3.9
			l5.4-0.1c0,0-0.1,7.3-19.3,10.4c-15.1,2.5-42.2,3.1-55.7,3.3l0.8-48.2l0.1-2.4c0,0,3.9-1.9,2.4-4.3c-1.1-1.8-2-2.9-2.4-3.4
			l0.9-57.8l1.6-0.9l-2.6-10.2l-2.6,10.1l2,1.1l-0.5,33.4l-0.5,23.9c0,0-0.6,1.1-1.9,1.7c-1.3,0.6-1.8-0.2-1.8-0.2s-1-3.4-4.5-6.4
			c-3.4-3-5.6-3.7-5.6-3.7l0.3-1.9c0,0,2,1.1,2.6,0.4c0.6-0.7,0.5-1.7,0.1-2.7c-0.4-1-0.3-1.7-0.5-2.1c-0.1-0.4,1-0.2,1-0.8
			c0-0.6-1.7-2.5-1.7-2.5s-0.3-2-0.9-3c-0.6-1-1.4-1.3-4.2-0.6c-2.7,0.8-3.6,1.9-3.3,3.9c0.3,2,0.8,2.9,0.3,3.3
			c-0.6,0.4-1.7,1.3-1,2c0.7,0.7,1.9,1.3,1.9,1.3l-0.4,2.4l-3.6,0.7c0,0,0.9-2.3-0.2-2.9c-1-0.6-1.5-1-1.5-1l0-46.9l1.6-0.8L77,108
			l-2.6,10.1l1.7,0.9L76,166.3c0,0-1.1,1.1-0.7,2.3c0.2,0.6,0.5,1.3,0.7,1.9v2.3c-0.5,1.4-1.6,3.4-1.6,3.4s-1.6-5.3-3.4-6.7
			c-1.9-1.4-4.3-2-4.3-2v-2.7c0,0,1.4-0.4,2-1.1c0.6-0.7,0.1-1.7-0.4-2.6c-0.6-0.8-0.4-2.3-1-4.1c-0.6-1.9-1.1-1.4-1.1-1.4
			s-0.4-1.7-2.9-1.3c-2.4,0.4-3.3,1.6-3.1,4.2c0.1,2.6-0.9,2.6-0.7,3.9c0.1,1.3,1.3,2.6,1.9,2.6c0.6,0,0.7,1.1-0.3,1.9
			c-1,0.7-6.3,2.5-6.3,2.5s-0.7,5.8-0.4,10.5c0.3,4.7,1.3,6.4,2.4,7.1c1.1,0.8,1.7,1.2,1.7,1.2s-1,3.4-1.3,6.4c-0.3,3-0.3,4-0.3,4
			l-2.6-1.1c0,0-0.7-2.6-0.7-3.9c0-1.3-0.1-3.9-0.3-4.9c-0.1-1-0.7-7.2-0.1-9.6c0.6-2.4-0.3-5-0.1-5.8c0.1-0.9,0.3-2.5-0.9-3.9
			c-1.2-1.4-1.6-1.9-2.8-2.4c-1.3-0.5-2.4-0.4-2.7-1.7c-0.3-1.3-0.1-2.6-0.1-2.6s1.6,0.3,2-2.2c0.4-2.4,0.7-3.4-0.9-4.1
			c0,0,0.6-1.6-0.7-3.4c-1.3-1.7-2.9-1.4-2.9-1.4l-1-0.3c0,0-2.4,0.3-3.3,1.9c-0.9,1.6-0.4,2.2-0.4,3.2c0,1-1.3,2.2-0.2,3
			c0.5,0.4-0.3,2.3,1,2.7c1.3,0.4,1.3,0.4,1.3,0.4s0.6,2.1-0.3,1.9c-0.9-0.3-2.7-1.7-5.1-1.4c-2.4,0.3-4.4,0.3-5.9,1
			c-1.5,0.7-0.6,1-2.7,1c-2.2,0-4.7,0-4.7,0s-1-1-1.4-1c-0.5,0-5.9-0.3-5.9-0.3l-1.3,0.6l-3.7-0.2l-1.9-0.5c0,0-0.7-1.7-1.1-1.7
			c0,0,1.3-13.6,5.6-18.6c4.3-5,6.6-4.6,11.2-5.6c4.6-1,8.3-2.4,10.3-4.6c2-2.1,2.9-4.6,2.9-4.6s0.5-1.8-0.4-0.5
			c-2.5,3.9-3.6,4.9-5.2,5.7c-6.2,3-8.8,1.9-13.9,3.7c-5.2,1.7-6.9,3.6-9.3,8.9C6,151.3,4.9,162,4.9,162s-1.3,0.7-1.3,1.9
			c0,1.2-0.7,3.2-0.2,3.6c0.6,0.4,1,0.1,1,0.1s0.3,12.9,3.6,19.2c2.5,4.8,5.9,6.3,7.3,6.7c0.7,4.3,1.8,8.9,0.4,12.4
			c-2,4.9-3.4,10.2-3.4,10.2s6.3,3.4,8.6,4.3c2.3,0.8,3,1.7,3,1.7l-0.3,3.5c0,0,2.6,2.4,5.9,2.8c3.3,0.5,5.6,1.7,6.9,2.6
			c1.3,0.9,1,3.9,1,3.9l-29.7-2.4l2.6,11.3l9.3,1.4L22,251c0,0,8.4,4.7,20.2,7.6c11.7,2.9,32.5,2.9,32.5,2.9s-3.5,6.7,0.7,10.9
			c4.2,4.2,10,3.2,10,3.2v9h12.8v-7.6c0,0,6.3,0.4,7.8,0.1c1.4-0.3,2.6-1.4,2.6-1.4v8.9l17,0.4l-0.9-11.1l11.1-0.1V285h19.9
			c0,0,0.4-8.6-1-14.3c-1.4-5.7-4.6-10.9-5-11c-0.4-0.2,32.2-2.3,43.4-13C204.2,235.9,199.4,225.3,196.2,216.5z M14.9,188.2
			c0,1,0,2.2,0.2,3.3c-1.1-0.6-3.5-2.2-5.7-7.2C6.1,177.4,7,167.7,7,167.7s0.3-0.2,1.3-0.2c1,0,3.4,1,3.4,1l11.2,4.1
			C22.9,172.7,15.2,182.7,14.9,188.2z M60.2,229.8c-0.4,1.2-0.5,2.3-0.3,2.8c0.2,0.5,0.3,2.7,0.3,2.7l-6.4-0.7c0,0,1.4-0.6,1-1.4
			c-0.4-0.8-1.6-1.2-1.6-1.4c0-0.3-0.3-1.8,0.4-3.6c0.7-1.9,2.5-5.3,2.5-5.3l3.9,0.5C60,223.3,60.6,228.6,60.2,229.8z M74.4,236.3
			c0,0,1.1-0.9,0.9-1.5c-0.3-0.6-2.4-0.4-4.1-0.8c-1.7-0.4-2.8-1.4-3.1-2.8c-0.3-1.3,0.7-7.7,0.7-7.7l2.2,0.1c0,0,1.9-21.4,1.9-26.4
			c0-4.9,0.2-7.4-0.3-9.1c-0.5-1.6-0.9-2.8-0.9-2.8l0.2-2.2c0,0,1.2,0.9,2.6,1c0.6,0,1.1-0.1,1.5-0.2v20.4c0,0.5-0.1,1-0.2,1.4
			c-0.6,3.9,0.4,14.6-0.1,17.2c-0.5,2.6-0.3,7.5-0.3,7.5l0.5,0.5v5.2H74.4z M101.8,236.7c-2.6,0-4.2,0-4.2,0s0.4-1.7-0.6-1.9
			c-1-0.1-4,0.1-4.7-1.4c-0.7-1.6,0.2-4,0.2-4l1.9-0.3l2-13.1c0,0,5-0.7,5.2-2c0.2-1.3,0.7-6.6,0.7-6.6L101.8,236.7z"/>
	</g>
</g>
</svg>
